# Blender v2.83.5 OBJ File: 'bubblegun.blend'
# www.blender.org
mtllib bubblegun.mtl
o Sphere
v -0.007040 0.038592 -0.629959
v -0.018568 0.029900 -0.630093
v -0.024419 0.015300 -0.632608
v -0.024769 0.007893 -0.616509
v -0.006118 0.038606 -0.616335
v -0.018353 0.025810 -0.610506
v -0.019696 -0.006511 -0.614893
v -0.010037 -0.015992 -0.619613
v -0.011369 0.013483 -0.600592
v 0.001120 0.001214 -0.598685
v -0.000447 -0.014517 -0.609859
v 0.005394 0.026632 -0.601203
v 0.015947 -0.002600 -0.604762
v 0.024275 0.017875 -0.610302
v 0.013057 0.036405 -0.615795
v 0.008718 -0.017261 -0.618352
v 0.022250 -0.008582 -0.621379
v 0.028307 0.016908 -0.622381
v 0.023107 0.025995 -0.633747
v 0.024966 0.001619 -0.634912
v 0.007754 0.039903 -0.629199
v 0.010859 0.028099 -0.643903
v 0.014554 0.011864 -0.647612
v 0.006563 -0.000773 -0.648091
v 0.010893 -0.012334 -0.639727
v 0.003395 -0.019386 -0.625243
v -0.006443 0.029786 -0.644154
v -0.008980 0.009906 -0.649503
v -0.006990 -0.013714 -0.637981
v -0.018509 -0.004002 -0.637490
vt 0.797448 0.715726
vt 0.804071 0.544218
vt 0.652882 0.664370
vt 0.846846 0.874295
vt 0.608795 0.860754
vt 0.734375 1.000000
vt 0.702279 0.471674
vt 0.570091 0.517255
vt 0.680720 0.309712
vt 0.502420 0.401904
vt 0.473272 0.663288
vt 0.730366 0.048064
vt 0.349433 0.116762
vt 0.505027 0.196812
vt 0.399088 0.361369
vt 0.339916 0.571809
vt 0.270653 0.283141
vt 0.352620 0.815540
vt 0.259675 0.563607
vt 0.166187 0.049004
vt 0.185728 0.401903
vt 0.180802 0.654772
vt 0.085170 0.234428
vt 0.070316 0.695143
vt 0.184898 0.893619
vt 0.082812 0.514485
vt 0.030787 0.376397
vt 1.000000 0.334687
vt 0.907378 0.207006
vt 0.943585 0.488328
vt 0.996354 0.174786
vt 0.941907 0.713127
vt 0.683873 0.154626
vt 0.000000 0.479867
vt 0.000000 0.725079
vt 0.845200 0.344076
vt 0.945930 0.046024
vt 0.985236 0.918502
vn -0.7791 0.5878 -0.2181
vn -0.9339 0.1372 -0.3302
vn -0.7182 0.4742 0.5092
vn -0.3365 0.9084 -0.2480
vn -0.2906 0.8867 0.3594
vn 0.2671 0.9380 -0.2209
vn -0.9566 -0.0756 0.2813
vn -0.4600 0.0551 0.8862
vn -0.7658 -0.5233 0.3738
vn -0.0241 -0.2767 0.9606
vn 0.1489 0.4615 0.8745
vn 0.0896 -0.9929 -0.0780
vn 0.3638 -0.8948 0.2588
vn -0.0863 -0.7733 0.6281
vn 0.5612 -0.3727 0.7390
vn 0.7983 0.1944 0.5699
vn 0.7973 -0.5914 0.1209
vn 0.4795 0.8060 0.3469
vn 0.9842 0.1658 0.0625
vn 0.8688 -0.2671 -0.4169
vn 0.8052 0.4772 -0.3518
vn 0.3821 -0.7162 -0.5840
vn 0.3258 0.5304 -0.7826
vn 0.4727 0.0414 -0.8802
vn 0.1714 -0.3465 -0.9222
vn -0.3297 -0.7662 -0.5515
vn -0.3652 -0.0139 -0.9308
vn -0.2880 0.5587 -0.7777
vn -0.4708 -0.8697 0.1481
vn -0.7537 -0.4435 -0.4851
usemtl Material
s 1
f 2/1/1 3/2/2 6/3/3
f 1/4/4 5/5/5 21/6/6
f 5/5/5 2/1/1 6/3/3
f 4/7/7 9/8/8 6/3/3
f 9/8/8 7/9/9 10/10/10
f 5/5/5 6/3/3 12/11/11
f 26/12/12 16/13/13 11/14/14
f 10/10/10 11/14/14 13/15/15
f 11/14/14 16/13/13 13/15/15
f 12/11/11 10/10/10 13/15/15
f 12/11/11 13/15/15 14/16/16
f 14/16/16 13/15/15 17/17/17
f 15/18/18 14/16/16 18/19/19
f 17/17/17 16/13/13 26/20/12
f 18/19/19 17/17/17 20/21/20
f 19/22/21 18/19/19 20/21/20
f 20/21/20 17/17/17 25/23/22
f 19/22/21 22/24/23 21/25/6
f 23/26/24 25/23/22 24/27/25
f 24/28/25 29/29/26 28/30/27
f 24/28/25 25/31/22 29/29/26
f 1/4/4 27/32/28 2/1/1
f 3/2/2 4/7/7 6/3/3
f 4/7/7 7/9/9 9/8/8
f 8/33/29 11/14/14 7/9/9
f 6/3/3 9/8/8 12/11/11
f 11/14/14 10/10/10 7/9/9
f 26/12/12 11/14/14 8/33/29
f 9/8/8 10/10/10 12/11/11
f 5/5/5 12/11/11 15/18/18
f 5/5/5 15/18/18 21/25/6
f 28/34/27 27/35/28 22/24/23
f 12/11/11 14/16/16 15/18/18
f 16/13/13 17/17/17 13/15/15
f 14/16/16 17/17/17 18/19/19
f 15/18/18 18/19/19 19/22/21
f 19/22/21 21/25/6 15/18/18
f 26/20/12 25/23/22 17/17/17
f 20/21/20 25/23/22 23/26/24
f 20/21/20 23/26/24 19/22/21
f 23/26/24 22/24/23 19/22/21
f 22/24/23 27/35/28 21/25/6
f 8/33/29 7/9/9 30/36/30
f 24/27/25 28/34/27 23/26/24
f 25/31/22 26/37/12 29/29/26
f 21/38/6 27/32/28 1/4/4
f 29/29/26 30/36/30 28/30/27
f 28/30/27 30/36/30 3/2/2
f 27/32/28 3/2/2 2/1/1
f 28/30/27 3/2/2 27/32/28
f 30/36/30 7/9/9 4/7/7
f 26/37/12 8/33/29 29/29/26
f 2/1/1 5/5/5 1/4/4
f 28/34/27 22/24/23 23/26/24
f 8/33/29 30/36/30 29/29/26
f 30/36/30 4/7/7 3/2/2
o Sphere.001
v -0.023809 0.087225 -0.487747
v -0.058439 0.063845 -0.487640
v -0.076013 0.024574 -0.485620
v -0.064042 -0.034980 -0.494149
v -0.055365 0.060459 -0.501377
v -0.077066 0.004650 -0.498548
v -0.021038 0.087263 -0.498687
v -0.057689 0.034020 -0.505678
v -0.050040 -0.031493 -0.503916
v -0.032811 -0.059594 -0.496055
v -0.036812 0.019688 -0.511330
v 0.024078 0.036489 -0.511694
v -0.006378 -0.026719 -0.510727
v -0.004004 -0.055627 -0.503889
v 0.008425 0.004713 -0.513219
v 0.005061 0.067320 -0.508128
v 0.047546 -0.009404 -0.508756
v 0.038330 -0.039552 -0.505043
v 0.057294 0.052106 -0.503382
v 0.036564 0.081342 -0.499121
v 0.072400 0.014199 -0.502619
v 0.064180 -0.039662 -0.494637
v 0.082374 0.028900 -0.493832
v 0.023530 -0.063007 -0.497068
v 0.066754 0.053343 -0.484705
v 0.072338 -0.012226 -0.483769
v 0.010844 0.092069 -0.491423
v 0.044252 -0.041309 -0.480616
v 0.011010 -0.055175 -0.481063
v 0.029959 0.059001 -0.476549
v 0.041059 0.015333 -0.473571
v 0.026760 0.085675 -0.485843
v 0.017056 -0.018657 -0.473186
v 0.007539 -0.068722 -0.491534
v -0.012345 0.065533 -0.476288
v -0.017690 0.006622 -0.471435
v -0.037601 0.058254 -0.478183
v -0.044248 0.013074 -0.474770
v -0.023657 -0.053467 -0.481305
v -0.058260 -0.027344 -0.481699
vt 0.797448 0.715726
vt 0.661953 0.703837
vt 0.804071 0.544218
vt 0.846846 0.874295
vt 0.734375 1.000000
vt 0.608795 0.860754
vt 0.635334 0.588019
vt 0.702279 0.471674
vt 0.570091 0.517255
vt 0.516597 0.343624
vt 0.633507 0.317235
vt 0.490178 0.721497
vt 0.452981 0.593425
vt 0.730366 0.048064
vt 0.505027 0.196812
vt 0.349433 0.116761
vt 0.486135 0.468853
vt 0.400868 0.418333
vt 0.396528 0.279472
vt 0.352569 0.658936
vt 0.330856 0.509424
vt 0.270653 0.283141
vt 0.352620 0.815540
vt 0.259675 0.563607
vt 0.255021 0.951399
vt 0.128188 0.846890
vt 0.166187 0.049004
vt 0.185728 0.401903
vt 0.180802 0.654772
vt 0.123216 0.273583
vt 0.070316 0.695143
vt 0.082812 0.514485
vt 0.030787 0.376397
vt 1.000000 0.875000
vt 0.966979 0.972292
vt 1.000000 0.334687
vt 0.970796 0.481227
vt 0.907378 0.207006
vt 0.996354 0.174786
vt 0.903807 0.498709
vt 0.845200 0.344076
vt 0.896783 0.692686
vt 0.733717 0.301268
vt 0.683873 0.154626
vt 0.000000 0.479867
vt 0.000000 0.725079
vt 0.038529 0.186427
vt 0.966233 0.724147
vt 0.945930 0.046024
vn -0.7253 0.5912 0.3526
vn -0.5574 0.4506 -0.6973
vn -0.8850 0.1979 0.4214
vn -0.3203 0.8283 0.4596
vn 0.0749 0.9968 0.0259
vn -0.2541 0.7743 -0.5795
vn -0.3591 0.1259 -0.9247
vn -0.9048 -0.1311 -0.4051
vn -0.1541 0.0283 -0.9876
vn -0.0362 -0.1575 -0.9868
vn -0.3204 -0.2751 -0.9065
vn 0.0100 0.2813 -0.9596
vn 0.0975 0.0943 -0.9907
vn 0.0575 -0.9953 0.0777
vn -0.0444 -0.4780 -0.8772
vn 0.3673 -0.8596 -0.3551
vn 0.0254 -0.0273 -0.9993
vn 0.2402 -0.1120 -0.9642
vn 0.2263 -0.3095 -0.9236
vn 0.4724 0.3588 -0.8050
vn 0.5453 -0.0608 -0.8360
vn 0.7595 -0.6287 -0.1670
vn 0.4598 0.7288 -0.5073
vn 0.9811 0.1880 -0.0457
vn 0.3182 0.7556 0.5725
vn 0.7735 -0.2216 0.5937
vn 0.7196 0.5151 0.4656
vn 0.3290 -0.4686 0.8198
vn 0.1368 0.2191 0.9661
vn 0.1818 0.0180 0.9832
vn 0.0532 -0.1269 0.9905
vn -0.0621 -0.0266 0.9977
vn -0.2279 -0.5368 0.8123
vn 0.0888 -0.4590 0.8839
vn -0.2148 0.0067 0.9766
vn -0.5011 -0.3142 0.8063
vn -0.2242 0.2434 0.9436
vn -0.8056 -0.5815 -0.1131
vn -0.4432 -0.8643 -0.2377
vn -0.0534 0.2710 0.9611
usemtl Material
s 1
f 32/39/31 35/40/32 33/41/33
f 31/42/34 57/43/35 37/44/36
f 37/44/36 35/40/32 32/39/31
f 35/40/32 38/45/37 36/46/38
f 36/46/38 38/45/37 41/47/39
f 41/47/39 43/48/40 39/49/41
f 37/44/36 46/50/42 35/40/32
f 46/50/42 42/51/43 41/47/39
f 64/52/44 44/53/45 54/54/46
f 45/55/47 47/56/48 43/48/40
f 43/48/40 47/56/48 48/57/49
f 43/48/40 48/57/49 44/53/45
f 44/53/45 48/57/49 54/54/46
f 42/51/43 47/56/48 45/55/47
f 42/51/43 49/58/50 51/59/51
f 42/51/43 51/59/51 47/56/48
f 48/57/49 47/56/48 52/60/52
f 51/59/51 52/60/52 47/56/48
f 50/61/53 53/62/54 49/58/50
f 57/63/35 62/64/55 50/61/53
f 52/60/52 64/65/44 54/54/46
f 53/62/54 56/66/56 52/60/52
f 55/67/57 56/66/56 53/62/54
f 38/45/37 46/50/42 41/47/39
f 56/66/56 58/68/58 52/60/52
f 55/67/57 62/64/55 60/69/59
f 61/70/60 63/71/61 58/68/58
f 62/72/55 57/73/35 31/42/34
f 63/74/61 66/75/62 69/76/63
f 63/74/61 69/76/63 59/77/64
f 68/78/65 70/79/66 66/75/62
f 31/42/34 32/39/31 67/80/67
f 33/41/33 35/40/32 36/46/38
f 34/81/68 36/46/38 39/49/41
f 34/81/68 39/49/41 40/82/69
f 36/46/38 41/47/39 39/49/41
f 40/82/69 39/49/41 44/53/45
f 66/83/62 60/69/59 65/84/70
f 44/53/45 39/49/41 43/48/40
f 41/47/39 45/55/47 43/48/40
f 64/52/44 40/82/69 44/53/45
f 41/47/39 42/51/43 45/55/47
f 37/44/36 50/61/53 46/50/42
f 37/44/36 57/63/35 50/61/53
f 46/50/42 49/58/50 42/51/43
f 46/50/42 50/61/53 49/58/50
f 54/54/46 48/57/49 52/60/52
f 51/59/51 49/58/50 53/62/54
f 51/59/51 53/62/54 52/60/52
f 50/61/53 55/67/57 53/62/54
f 55/67/57 50/61/53 62/64/55
f 64/65/44 52/60/52 58/68/58
f 56/66/56 61/70/60 58/68/58
f 56/66/56 55/67/57 61/70/60
f 64/65/44 58/68/58 59/85/64
f 61/70/60 55/67/57 60/69/59
f 58/68/58 63/71/61 59/85/64
f 60/69/59 62/64/55 65/84/70
f 67/80/67 66/75/62 65/86/70
f 63/71/61 61/70/60 66/83/62
f 59/77/64 69/76/63 64/87/44
f 62/72/55 31/42/34 65/86/70
f 69/76/63 66/75/62 70/79/66
f 69/76/63 34/81/68 40/82/69
f 65/86/70 31/42/34 67/80/67
f 68/78/65 33/41/33 70/79/66
f 67/80/67 32/39/31 33/41/33
f 68/78/65 67/80/67 33/41/33
f 34/81/68 33/41/33 36/46/38
f 64/87/44 69/76/63 40/82/69
f 32/39/31 31/42/34 37/44/36
f 38/45/37 35/40/32 46/50/42
f 66/83/62 61/70/60 60/69/59
f 67/80/67 68/78/65 66/75/62
f 69/76/63 70/79/66 34/81/68
f 34/81/68 70/79/66 33/41/33
o Sphere.002
v -0.015607 0.062842 -0.553830
v -0.038938 0.047091 -0.553758
v -0.050777 0.020634 -0.552397
v -0.042712 -0.019488 -0.558143
v -0.036867 0.044809 -0.563013
v -0.051487 0.007211 -0.561107
v -0.013740 0.062868 -0.561201
v -0.038432 0.026997 -0.565911
v -0.033279 -0.017139 -0.564723
v -0.021672 -0.036071 -0.559427
v -0.024368 0.017342 -0.569718
v 0.016655 0.028661 -0.569964
v -0.003864 -0.013923 -0.569312
v -0.002264 -0.033398 -0.564705
v 0.006109 0.007253 -0.570991
v 0.003843 0.049432 -0.567561
v 0.032465 -0.002257 -0.567984
v 0.026256 -0.022568 -0.565483
v 0.039033 0.039182 -0.564364
v 0.025066 0.058879 -0.561493
v 0.049209 0.013644 -0.563850
v 0.043672 -0.022643 -0.558472
v 0.055929 0.023548 -0.557930
v 0.016285 -0.038370 -0.560110
v 0.045406 0.040016 -0.551781
v 0.049168 -0.004158 -0.551150
v 0.007739 0.066106 -0.556307
v 0.030246 -0.023752 -0.549026
v 0.007851 -0.033094 -0.549327
v 0.020617 0.043827 -0.546286
v 0.028095 0.014408 -0.544280
v 0.018462 0.061798 -0.552548
v 0.011924 -0.008491 -0.544021
v 0.005512 -0.042221 -0.556382
v -0.007884 0.048228 -0.546110
v -0.011485 0.008540 -0.542841
v -0.024899 0.043324 -0.547387
v -0.029377 0.012886 -0.545088
v -0.015505 -0.031943 -0.549490
v -0.038817 -0.014344 -0.549756
vt 0.797448 0.715726
vt 0.661953 0.703837
vt 0.804071 0.544218
vt 0.846846 0.874295
vt 0.734375 1.000000
vt 0.608795 0.860754
vt 0.635334 0.588019
vt 0.702279 0.471674
vt 0.570091 0.517255
vt 0.516597 0.343624
vt 0.633507 0.317235
vt 0.490178 0.721497
vt 0.452981 0.593425
vt 0.730366 0.048064
vt 0.505027 0.196812
vt 0.349433 0.116761
vt 0.486135 0.468853
vt 0.400868 0.418333
vt 0.396528 0.279472
vt 0.352569 0.658936
vt 0.330856 0.509424
vt 0.270653 0.283141
vt 0.352620 0.815540
vt 0.259675 0.563607
vt 0.255021 0.951399
vt 0.128188 0.846890
vt 0.166187 0.049004
vt 0.185728 0.401903
vt 0.180802 0.654772
vt 0.123216 0.273583
vt 0.070316 0.695143
vt 0.082812 0.514485
vt 0.030787 0.376397
vt 1.000000 0.875000
vt 0.966979 0.972292
vt 1.000000 0.334687
vt 0.970796 0.481227
vt 0.907378 0.207006
vt 0.996354 0.174786
vt 0.903807 0.498709
vt 0.845200 0.344076
vt 0.896783 0.692686
vt 0.733717 0.301268
vt 0.683873 0.154626
vt 0.000000 0.479867
vt 0.000000 0.725079
vt 0.038529 0.186427
vt 0.966233 0.724147
vt 0.945930 0.046024
vn -0.7253 0.5912 0.3526
vn -0.5574 0.4506 -0.6973
vn -0.8850 0.1979 0.4214
vn -0.3203 0.8283 0.4596
vn 0.0749 0.9968 0.0259
vn -0.2541 0.7743 -0.5795
vn -0.3591 0.1259 -0.9247
vn -0.9048 -0.1311 -0.4051
vn -0.1541 0.0283 -0.9876
vn -0.0362 -0.1575 -0.9868
vn -0.3204 -0.2751 -0.9065
vn 0.0100 0.2813 -0.9596
vn 0.0975 0.0943 -0.9907
vn 0.0575 -0.9953 0.0777
vn -0.0444 -0.4780 -0.8772
vn 0.3673 -0.8596 -0.3551
vn 0.0254 -0.0273 -0.9993
vn 0.2402 -0.1120 -0.9642
vn 0.2263 -0.3095 -0.9236
vn 0.4724 0.3588 -0.8050
vn 0.5453 -0.0608 -0.8360
vn 0.7595 -0.6287 -0.1670
vn 0.4598 0.7288 -0.5073
vn 0.9811 0.1880 -0.0457
vn 0.3182 0.7556 0.5725
vn 0.7735 -0.2216 0.5937
vn 0.7196 0.5151 0.4656
vn 0.3290 -0.4686 0.8198
vn 0.1368 0.2191 0.9661
vn 0.1818 0.0180 0.9832
vn 0.0532 -0.1269 0.9905
vn -0.0621 -0.0266 0.9977
vn -0.2279 -0.5368 0.8123
vn 0.0888 -0.4590 0.8839
vn -0.2148 0.0067 0.9766
vn -0.5011 -0.3142 0.8063
vn -0.2242 0.2434 0.9436
vn -0.8056 -0.5815 -0.1131
vn -0.4432 -0.8643 -0.2377
vn -0.0534 0.2710 0.9611
usemtl Material
s 1
f 72/88/71 75/89/72 73/90/73
f 71/91/74 97/92/75 77/93/76
f 77/93/76 75/89/72 72/88/71
f 75/89/72 78/94/77 76/95/78
f 76/95/78 78/94/77 81/96/79
f 81/96/79 83/97/80 79/98/81
f 77/93/76 86/99/82 75/89/72
f 86/99/82 82/100/83 81/96/79
f 104/101/84 84/102/85 94/103/86
f 85/104/87 87/105/88 83/97/80
f 83/97/80 87/105/88 88/106/89
f 83/97/80 88/106/89 84/102/85
f 84/102/85 88/106/89 94/103/86
f 82/100/83 87/105/88 85/104/87
f 82/100/83 89/107/90 91/108/91
f 82/100/83 91/108/91 87/105/88
f 88/106/89 87/105/88 92/109/92
f 91/108/91 92/109/92 87/105/88
f 90/110/93 93/111/94 89/107/90
f 97/112/75 102/113/95 90/110/93
f 92/109/92 104/114/84 94/103/86
f 93/111/94 96/115/96 92/109/92
f 95/116/97 96/115/96 93/111/94
f 78/94/77 86/99/82 81/96/79
f 96/115/96 98/117/98 92/109/92
f 95/116/97 102/113/95 100/118/99
f 101/119/100 103/120/101 98/117/98
f 102/121/95 97/122/75 71/91/74
f 103/123/101 106/124/102 109/125/103
f 103/123/101 109/125/103 99/126/104
f 108/127/105 110/128/106 106/124/102
f 71/91/74 72/88/71 107/129/107
f 73/90/73 75/89/72 76/95/78
f 74/130/108 76/95/78 79/98/81
f 74/130/108 79/98/81 80/131/109
f 76/95/78 81/96/79 79/98/81
f 80/131/109 79/98/81 84/102/85
f 106/132/102 100/118/99 105/133/110
f 84/102/85 79/98/81 83/97/80
f 81/96/79 85/104/87 83/97/80
f 104/101/84 80/131/109 84/102/85
f 81/96/79 82/100/83 85/104/87
f 77/93/76 90/110/93 86/99/82
f 77/93/76 97/112/75 90/110/93
f 86/99/82 89/107/90 82/100/83
f 86/99/82 90/110/93 89/107/90
f 94/103/86 88/106/89 92/109/92
f 91/108/91 89/107/90 93/111/94
f 91/108/91 93/111/94 92/109/92
f 90/110/93 95/116/97 93/111/94
f 95/116/97 90/110/93 102/113/95
f 104/114/84 92/109/92 98/117/98
f 96/115/96 101/119/100 98/117/98
f 96/115/96 95/116/97 101/119/100
f 104/114/84 98/117/98 99/134/104
f 101/119/100 95/116/97 100/118/99
f 98/117/98 103/120/101 99/134/104
f 100/118/99 102/113/95 105/133/110
f 107/129/107 106/124/102 105/135/110
f 103/120/101 101/119/100 106/132/102
f 99/126/104 109/125/103 104/136/84
f 102/121/95 71/91/74 105/135/110
f 109/125/103 106/124/102 110/128/106
f 109/125/103 74/130/108 80/131/109
f 105/135/110 71/91/74 107/129/107
f 108/127/105 73/90/73 110/128/106
f 107/129/107 72/88/71 73/90/73
f 108/127/105 107/129/107 73/90/73
f 74/130/108 73/90/73 76/95/78
f 104/136/84 109/125/103 80/131/109
f 72/88/71 71/91/74 77/93/76
f 78/94/77 75/89/72 86/99/82
f 106/132/102 101/119/100 100/118/99
f 107/129/107 108/127/105 106/124/102
f 109/125/103 110/128/106 74/130/108
f 74/130/108 110/128/106 73/90/73
o Cube.004
v 0.031675 -0.128982 0.064590
v 0.044653 -0.116003 0.064590
v 0.031675 -0.116003 0.077569
v 0.044653 -0.055308 0.064590
v 0.031675 -0.042329 0.064590
v 0.031675 -0.055308 0.077569
v -0.029020 -0.128982 0.064590
v -0.029020 -0.116003 0.077569
v -0.041999 -0.116003 0.064590
v -0.029020 -0.042329 0.064590
v -0.041999 -0.055308 0.064590
v -0.029020 -0.055308 0.077569
v 0.031675 -0.128982 0.003895
v 0.031675 -0.116003 -0.009084
v 0.044653 -0.116003 0.003895
v 0.031675 -0.042329 0.003895
v 0.044653 -0.055308 0.003895
v 0.031675 -0.055308 -0.009084
v -0.029020 -0.128982 0.003895
v -0.041999 -0.116003 0.003895
v -0.029020 -0.116003 -0.009084
v -0.029020 -0.042329 0.003895
v -0.029020 -0.055308 -0.009084
v -0.041999 -0.055308 0.003895
vt 0.587555 0.787445
vt 0.412445 0.962555
vt 0.412445 0.787445
vt 0.587555 0.537445
vt 0.412445 0.712555
vt 0.412445 0.537445
vt 0.837555 0.537445
vt 0.662445 0.712555
vt 0.662445 0.537445
vt 0.587555 0.037445
vt 0.412445 0.212555
vt 0.412445 0.037445
vt 0.587555 0.287445
vt 0.412445 0.462555
vt 0.412445 0.287445
vt 0.162445 0.712555
vt 0.162445 0.750000
vt 0.125000 0.712555
vt 0.587555 0.962555
vt 0.625000 0.962555
vt 0.587555 1.000000
vt 0.162445 0.537445
vt 0.125000 0.537445
vt 0.162445 0.500000
vt 0.625000 0.287445
vt 0.625000 0.287445
vt 0.587555 0.250000
vt 0.337555 0.712555
vt 0.375000 0.712555
vt 0.337555 0.750000
vt 0.625000 0.787445
vt 0.625000 0.787445
vt 0.587555 0.750000
vt 0.337555 0.537445
vt 0.337555 0.500000
vt 0.375000 0.537445
vt 0.625000 0.537445
vt 0.625000 0.537445
vt 0.587555 0.500000
vt 0.587555 0.000000
vt 0.412445 0.000000
vt 0.625000 0.212555
vt 0.625000 0.037445
vt 0.587555 0.212555
vt 0.625000 0.462555
vt 0.587555 0.462555
vt 0.587555 0.712555
vt 0.837555 0.712555
vn 1.0000 0.0000 0.0000
vn 0.0000 0.0000 -1.0000
vn 0.0000 1.0000 0.0000
vn 0.0000 0.0000 1.0000
vn -1.0000 0.0000 0.0000
vn 0.5774 -0.5774 0.5774
vn 0.5774 0.5774 0.5774
vn -0.5773 -0.5774 0.5774
vn -0.5774 0.5774 0.5774
vn 0.5774 -0.5774 -0.5774
vn 0.5774 0.5774 -0.5774
vn -0.5774 -0.5773 -0.5774
vn -0.5774 0.5774 -0.5774
vn 0.0000 -0.7071 0.7071
vn 0.7071 0.0000 0.7071
vn 0.0000 0.7071 0.7071
vn -0.7071 0.0000 0.7071
vn -0.7071 -0.7071 0.0000
vn -0.7071 0.7071 0.0000
vn -0.7071 0.0000 -0.7071
vn -0.0000 -0.7071 -0.7071
vn -0.0000 0.7071 -0.7071
vn 0.7071 0.0000 -0.7071
vn 0.7071 -0.7071 0.0000
vn 0.7071 0.7071 0.0000
vn 0.0000 -1.0000 0.0000
usemtl Material
s off
f 127/137/111 112/138/111 125/139/111
f 133/140/112 124/141/112 131/142/112
f 120/143/113 126/144/113 132/145/113
f 116/146/114 118/147/114 113/148/114
f 121/149/115 130/150/115 119/151/115
f 111/152/116 112/153/116 113/154/116
f 114/155/117 115/156/117 116/157/117
f 117/158/118 118/159/118 119/160/118
f 120/161/119 121/162/119 122/163/119
f 123/164/120 124/165/120 125/166/120
f 126/167/121 127/168/121 128/169/121
f 129/170/122 130/171/122 131/172/122
f 132/173/123 133/174/123 134/175/123
f 111/152/124 118/159/124 117/158/124
f 114/176/125 113/148/125 112/177/125
f 120/178/126 116/146/126 115/179/126
f 119/151/127 122/180/127 121/149/127
f 117/158/128 130/171/128 129/170/128
f 132/181/129 121/149/129 120/161/129
f 131/142/130 134/182/130 133/140/130
f 129/170/131 124/141/131 123/164/131
f 126/144/132 133/140/132 132/145/132
f 125/139/133 128/183/133 127/137/133
f 123/164/134 112/153/134 111/152/134
f 115/156/135 127/137/135 126/167/135
f 129/170/136 111/152/136 117/158/136
f 127/137/111 114/155/111 112/138/111
f 133/140/112 128/183/112 124/141/112
f 120/143/113 115/184/113 126/144/113
f 116/146/114 122/180/114 118/147/114
f 121/149/115 134/182/115 130/150/115
f 111/152/124 113/154/124 118/159/124
f 114/176/125 116/146/125 113/148/125
f 120/178/126 122/180/126 116/146/126
f 119/151/127 118/147/127 122/180/127
f 117/158/128 119/160/128 130/171/128
f 132/181/129 134/182/129 121/149/129
f 131/142/130 130/150/130 134/182/130
f 129/170/131 131/142/131 124/141/131
f 126/144/132 128/183/132 133/140/132
f 125/139/133 124/141/133 128/183/133
f 123/164/134 125/166/134 112/153/134
f 115/156/135 114/155/135 127/137/135
f 129/170/136 123/164/136 111/152/136
o Cube.005
v -0.071781 -0.070638 0.192877
v -0.071781 0.070638 0.192877
v -0.071781 -0.070638 -0.453593
v -0.071781 0.070638 -0.453593
v 0.069494 -0.070638 0.192877
v 0.069494 0.070638 0.192877
v 0.069494 -0.070638 -0.453593
v 0.069494 0.070638 -0.453593
vt 0.593750 -2.153504
vt 0.343750 -0.826752
vt 0.343750 -2.153504
vt 0.593750 -0.826752
vt 0.343750 0.500000
vt 0.593750 0.500000
vt 0.343750 1.826752
vt 0.593750 1.826752
vt 0.343750 3.153504
vt 0.093750 1.826752
vt 0.093750 0.500000
vt 0.843750 0.500000
vt 0.593750 3.153504
vt 0.843750 1.826752
vn -1.0000 0.0000 0.0000
vn 0.0000 0.0000 -1.0000
vn 1.0000 0.0000 0.0000
vn 0.0000 0.0000 1.0000
vn 0.0000 -1.0000 0.0000
vn 0.0000 1.0000 0.0000
usemtl Material
s off
f 136/185/137 137/186/137 135/187/137
f 138/188/138 141/189/138 137/186/138
f 142/190/139 139/191/139 141/189/139
f 140/192/140 135/193/140 139/191/140
f 141/189/141 135/194/141 137/195/141
f 138/196/142 140/192/142 142/190/142
f 136/185/137 138/188/137 137/186/137
f 138/188/138 142/190/138 141/189/138
f 142/190/139 140/192/139 139/191/139
f 140/192/140 136/197/140 135/193/140
f 141/189/141 139/191/141 135/194/141
f 138/196/142 136/198/142 140/192/142
o Cube.001_Cube.006
v -0.039443 -0.186241 -0.224017
v -0.039443 -0.068395 -0.224017
v -0.039443 -0.186241 -0.289759
v -0.039443 -0.068395 -0.289759
v 0.037258 -0.186241 -0.224017
v 0.037258 -0.068395 -0.224017
v 0.037258 -0.186241 -0.289759
v 0.037258 -0.068395 -0.289759
vt 0.625000 0.000000
vt 0.375000 0.250000
vt 0.375000 0.000000
vt 0.625000 0.250000
vt 0.375000 0.500000
vt 0.625000 0.500000
vt 0.375000 0.750000
vt 0.625000 0.750000
vt 0.375000 1.000000
vt 0.125000 0.750000
vt 0.125000 0.500000
vt 0.625000 1.000000
vn -1.0000 0.0000 0.0000
vn 0.0000 0.0000 -1.0000
vn 1.0000 0.0000 0.0000
vn 0.0000 0.0000 1.0000
vn 0.0000 -1.0000 0.0000
usemtl Material
s off
f 144/199/143 145/200/143 143/201/143
f 146/202/144 149/203/144 145/200/144
f 150/204/145 147/205/145 149/203/145
f 148/206/146 143/207/146 147/205/146
f 149/203/147 143/208/147 145/209/147
f 144/199/143 146/202/143 145/200/143
f 146/202/144 150/204/144 149/203/144
f 150/204/145 148/206/145 147/205/145
f 148/206/146 144/210/146 143/207/146
f 149/203/147 147/205/147 143/208/147
o Cube.002_Cube.007
v 0.044623 -0.068194 0.041302
v 0.044623 -0.300818 0.041302
v 0.044623 -0.068194 0.126205
v 0.044623 -0.300818 0.126205
v -0.040279 -0.068194 0.041302
v -0.040279 -0.300818 0.041302
v -0.040279 -0.068194 0.126205
v -0.040279 -0.300818 0.126205
vt 0.625000 0.000000
vt 0.375000 0.000000
vt 0.375000 0.250000
vt 0.625000 0.250000
vt 0.375000 0.500000
vt 0.625000 0.500000
vt 0.375000 0.750000
vt 0.625000 0.750000
vt 0.375000 1.000000
vt 0.875000 0.500000
vt 0.625000 1.000000
vt 0.875000 0.750000
vn 1.0000 0.0000 0.0000
vn 0.0000 0.0000 1.0000
vn -1.0000 0.0000 0.0000
vn 0.0000 0.0000 -1.0000
vn 0.0000 -1.0000 0.0000
usemtl Material
s off
f 152/211/148 151/212/148 153/213/148
f 154/214/149 153/213/149 157/215/149
f 158/216/150 157/215/150 155/217/150
f 156/218/151 155/217/151 151/219/151
f 154/220/152 158/216/152 156/218/152
f 152/211/148 153/213/148 154/214/148
f 154/214/149 157/215/149 158/216/149
f 158/216/150 155/217/150 156/218/150
f 156/218/151 151/219/151 152/221/151
f 154/220/152 156/218/152 152/222/152
o Cube_Cube.008
v -0.014890 -0.004912 -0.448974
v -0.014890 0.024245 -0.448974
v -0.014890 -0.004912 -0.614829
v -0.014890 0.024245 -0.614829
v 0.018184 -0.004912 -0.448974
v 0.018184 0.024245 -0.448974
v 0.018184 -0.004912 -0.614829
v 0.018184 0.024245 -0.614829
vt 0.625000 0.000000
vt 0.375000 0.250000
vt 0.375000 0.000000
vt 0.625000 0.500000
vt 0.375000 0.750000
vt 0.375000 0.500000
vt 0.125000 0.750000
vt 0.125000 0.500000
vt 0.875000 0.500000
vt 0.625000 0.750000
vt 0.625000 0.250000
vt 0.875000 0.750000
vn -1.0000 0.0000 0.0000
vn 1.0000 0.0000 0.0000
vn 0.0000 -1.0000 0.0000
vn 0.0000 1.0000 0.0000
usemtl Material
s off
f 160/223/153 161/224/153 159/225/153
f 166/226/154 163/227/154 165/228/154
f 165/228/155 159/229/155 161/230/155
f 162/231/156 164/232/156 166/226/156
f 160/223/153 162/233/153 161/224/153
f 166/226/154 164/232/154 163/227/154
f 165/228/155 163/227/155 159/229/155
f 162/231/156 160/234/156 164/232/156
