# Blender v2.83.5 OBJ File: 'chickenhead.blend'
# www.blender.org
mtllib chickenhead.mtl
o Cube
v 0.349006 0.737899 -0.332238
v 0.361640 0.725266 -0.332238
v 0.349006 0.725266 -0.344871
v 0.357939 0.734199 -0.332238
v 0.356300 0.732560 -0.339532
v 0.357939 0.725266 -0.341171
v 0.349006 0.734199 -0.341171
v -0.374255 0.725266 -0.332238
v -0.361621 0.737899 -0.332238
v -0.361621 0.725266 -0.344871
v -0.370554 0.734199 -0.332238
v -0.368915 0.732560 -0.339532
v -0.361621 0.734199 -0.341171
v -0.370554 0.725266 -0.341171
v 0.349006 0.014639 -0.344871
v 0.361640 0.014639 -0.332238
v 0.349006 0.002005 -0.332238
v 0.357939 0.014639 -0.341171
v 0.356300 0.007345 -0.339532
v 0.357939 0.005705 -0.332238
v 0.349006 0.005705 -0.341171
v -0.361621 0.014639 -0.344871
v -0.361621 0.002005 -0.332238
v -0.374255 0.014639 -0.332238
v -0.361621 0.005705 -0.341171
v -0.368915 0.007345 -0.339532
v -0.370554 0.005705 -0.332238
v -0.370554 0.014639 -0.341171
v 0.349006 0.737899 0.378390
v 0.349006 0.725266 0.391023
v 0.361640 0.725266 0.378390
v 0.349006 0.734199 0.387323
v 0.356300 0.732560 0.385684
v 0.357939 0.725266 0.387323
v 0.357939 0.734199 0.378390
v -0.361621 0.725266 0.391023
v -0.361621 0.737899 0.378390
v -0.374255 0.725266 0.378390
v -0.361621 0.734199 0.387323
v -0.368915 0.732560 0.385684
v -0.370554 0.734199 0.378390
v -0.370554 0.725266 0.387323
v 0.349006 0.014639 0.391023
v 0.349006 0.002005 0.378390
v 0.361640 0.014639 0.378390
v 0.349006 0.005705 0.387323
v 0.356300 0.007345 0.385684
v 0.357939 0.005705 0.378390
v 0.357939 0.014639 0.387323
v -0.374255 0.014639 0.378390
v -0.361621 0.002005 0.378390
v -0.361621 0.014639 0.391023
v -0.370554 0.005705 0.378390
v -0.368915 0.007345 0.385684
v -0.361621 0.005705 0.387323
v -0.370554 0.014639 0.387323
vt 0.669541 0.328708
vt 0.989988 0.008260
vt 0.989988 0.328708
vt 0.337699 0.992391
vt 0.658147 0.671943
vt 0.658147 0.992391
vt 0.689871 0.644695
vt 0.977850 0.356715
vt 0.977850 0.644695
vt 0.005858 0.328708
vt 0.326305 0.008260
vt 0.326305 0.328708
vt 0.337699 0.328708
vt 0.658147 0.008260
vt 0.658147 0.328708
vt 0.337699 0.340102
vt 0.332805 0.334405
vt 0.337699 0.334405
vt 0.326305 0.334405
vt 0.332002 0.328708
vt 0.663844 0.333602
vt 0.663844 0.328708
vt 0.658147 0.340102
vt 0.663844 0.340102
vt 0.658147 0.334405
vt 0.337699 0.008260
vt 0.332002 0.004971
vt 0.337699 0.002563
vt 0.329594 0.002563
vt 0.332002 0.008260
vt 0.686915 0.649815
vt 0.684751 0.644695
vt 0.661436 0.002563
vt 0.663844 0.008260
vt 0.982970 0.647651
vt 0.977850 0.649815
vt 0.669541 0.008260
vt 0.663844 0.004971
vt 0.669541 0.002563
vt 0.337699 0.660549
vt 0.334410 0.666246
vt 0.332002 0.660549
vt 0.337699 0.671943
vt 0.332002 0.668654
vt 0.337699 0.666246
vt 0.002569 0.334405
vt 0.000161 0.328708
vt 0.661436 0.666246
vt 0.663844 0.671943
vt 0.658147 0.660549
vt 0.663844 0.663838
vt 0.658147 0.666246
vt 0.995685 0.331997
vt 0.989988 0.334405
vt 0.334410 0.998088
vt 0.332002 0.992391
vt 0.689871 0.356715
vt 0.684751 0.353760
vt 0.689871 0.351596
vt 0.005858 0.008260
vt 0.000161 0.004971
vt 0.005858 0.002563
vt 0.993277 0.002563
vt 0.995685 0.008260
vt 0.980806 0.351596
vt 0.982970 0.356715
vt 0.663844 0.995680
vt 0.658147 0.998088
vt 0.995685 0.328708
vt 0.663844 0.992391
vt 0.669541 0.334405
vt 0.663844 0.660549
vt 0.977850 0.351596
vt 0.337699 0.998088
vt 0.689871 0.649815
vt 0.658147 0.002563
vt 0.326305 0.002563
vt 0.684751 0.356715
vt 0.989988 0.002563
vt 0.982970 0.644695
vt 0.000161 0.008260
vt 0.332002 0.671943
vt 0.005858 0.334405
vt 0.332002 0.340102
vn -0.9673 0.1794 -0.1794
vn -0.9673 -0.1794 0.1794
vn -0.9673 0.1794 0.1794
vn 0.1794 -0.1794 0.9673
vn -0.1794 0.1794 0.9673
vn -0.1794 -0.1794 0.9673
vn 0.1794 -0.9673 -0.1794
vn -0.1794 -0.9673 0.1794
vn -0.1794 -0.9673 -0.1794
vn 0.9673 0.1794 0.1794
vn 0.9673 -0.1794 -0.1794
vn 0.9673 0.1794 -0.1794
vn 0.1794 0.1794 -0.9673
vn -0.1794 -0.1794 -0.9673
vn -0.1794 0.1794 -0.9673
vn 0.1794 0.9673 -0.1794
vn 0.5773 0.5773 -0.5773
vn 0.1479 0.6993 -0.6993
vn 0.6993 0.6993 -0.1479
vn 0.6993 0.1479 -0.6993
vn -0.5773 0.5773 -0.5773
vn -0.6993 0.1479 -0.6993
vn -0.1794 0.9673 -0.1794
vn -0.6993 0.6993 -0.1479
vn -0.1479 0.6993 -0.6993
vn 0.1794 -0.1794 -0.9673
vn 0.5773 -0.5773 -0.5773
vn 0.1479 -0.6993 -0.6993
vn 0.6993 -0.1479 -0.6993
vn 0.6993 -0.6993 -0.1479
vn -0.5773 -0.5773 -0.5773
vn -0.6993 -0.1479 -0.6993
vn -0.1479 -0.6993 -0.6993
vn -0.9673 -0.1794 -0.1794
vn -0.6993 -0.6993 -0.1479
vn 0.1794 0.9673 0.1794
vn 0.5773 0.5773 0.5773
vn 0.6993 0.6993 0.1479
vn 0.1794 0.1794 0.9673
vn 0.1479 0.6993 0.6993
vn 0.6993 0.1479 0.6993
vn -0.5773 0.5773 0.5773
vn -0.6993 0.1479 0.6993
vn -0.1794 0.9673 0.1794
vn -0.1479 0.6993 0.6993
vn -0.6993 0.6993 0.1479
vn 0.5773 -0.5773 0.5773
vn 0.6993 -0.1479 0.6993
vn 0.1794 -0.9673 0.1794
vn 0.1479 -0.6993 0.6993
vn 0.9673 -0.1794 0.1794
vn 0.6993 -0.6993 0.1479
vn -0.5773 -0.5773 0.5773
vn -0.6993 -0.1479 0.6993
vn -0.6993 -0.6993 0.1479
vn -0.1479 -0.6993 0.6993
usemtl Material
s 1
f 8/1/1 50/2/2 38/3/3
f 43/4/4 36/5/5 52/6/6
f 17/7/7 51/8/8 23/9/9
f 31/10/10 16/11/11 2/12/12
f 3/13/13 22/14/14 10/15/15
f 1/16/16 5/17/17 7/18/18
f 2/12/12 5/17/17 4/19/19
f 3/13/13 5/17/17 6/20/20
f 8/1/1 12/21/21 14/22/22
f 9/23/23 12/21/21 11/24/24
f 10/15/15 12/21/21 13/25/25
f 15/26/26 19/27/27 21/28/28
f 16/11/11 19/29/27 18/30/29
f 17/7/7 19/31/27 20/32/30
f 22/14/14 26/33/31 28/34/32
f 23/9/9 26/35/31 25/36/33
f 24/37/34 26/38/31 27/39/35
f 29/40/36 33/41/37 35/42/38
f 30/43/39 33/44/37 32/45/40
f 31/10/10 33/46/37 34/47/41
f 36/5/5 40/48/42 42/49/43
f 37/50/44 40/51/42 39/52/45
f 38/3/3 40/53/42 41/54/46
f 43/4/4 47/55/47 49/56/48
f 44/57/49 47/58/47 46/59/50
f 45/60/51 47/61/47 48/62/52
f 50/2/2 54/63/53 56/64/54
f 51/8/8 54/65/53 53/66/55
f 52/6/6 54/67/53 55/68/56
f 50/2/2 42/69/43 38/3/3
f 56/70/54 36/5/5 42/49/43
f 38/3/3 11/71/24 8/1/1
f 41/72/46 9/23/23 11/24/24
f 10/15/15 7/18/18 3/13/13
f 13/25/25 1/16/16 7/18/18
f 44/57/49 55/73/56 51/8/8
f 46/74/50 52/6/6 55/68/56
f 23/9/9 21/75/28 17/7/7
f 25/76/33 15/26/26 21/28/28
f 37/50/44 32/45/40 29/40/36
f 39/52/45 30/43/39 32/45/40
f 45/60/51 20/77/30 16/11/11
f 48/78/52 17/7/7 20/32/30
f 16/11/11 6/20/20 2/12/12
f 18/30/29 3/13/13 6/20/20
f 24/37/34 53/79/55 50/2/2
f 27/80/35 51/8/8 53/66/55
f 31/10/10 49/81/48 45/60/51
f 34/82/41 43/4/4 49/56/48
f 2/12/12 35/83/38 31/10/10
f 4/84/19 29/40/36 35/42/38
f 8/1/1 28/34/32 24/37/34
f 14/22/22 22/14/14 28/34/32
f 29/40/36 9/23/23 37/50/44
f 8/1/1 24/37/34 50/2/2
f 43/4/4 30/43/39 36/5/5
f 17/7/7 44/57/49 51/8/8
f 31/10/10 45/60/51 16/11/11
f 3/13/13 15/26/26 22/14/14
f 1/16/16 4/84/19 5/17/17
f 2/12/12 6/20/20 5/17/17
f 3/13/13 7/18/18 5/17/17
f 8/1/1 11/71/24 12/21/21
f 9/23/23 13/25/25 12/21/21
f 10/15/15 14/22/22 12/21/21
f 15/26/26 18/30/29 19/27/27
f 16/11/11 20/77/30 19/29/27
f 17/7/7 21/75/28 19/31/27
f 22/14/14 25/76/33 26/33/31
f 23/9/9 27/80/35 26/35/31
f 24/37/34 28/34/32 26/38/31
f 29/40/36 32/45/40 33/41/37
f 30/43/39 34/82/41 33/44/37
f 31/10/10 35/83/38 33/46/37
f 36/5/5 39/52/45 40/48/42
f 37/50/44 41/72/46 40/51/42
f 38/3/3 42/69/43 40/53/42
f 43/4/4 46/74/50 47/55/47
f 44/57/49 48/78/52 47/58/47
f 45/60/51 49/81/48 47/61/47
f 50/2/2 53/79/55 54/63/53
f 51/8/8 55/73/56 54/65/53
f 52/6/6 56/70/54 54/67/53
f 50/2/2 56/64/54 42/69/43
f 56/70/54 52/6/6 36/5/5
f 38/3/3 41/54/46 11/71/24
f 41/72/46 37/50/44 9/23/23
f 10/15/15 13/25/25 7/18/18
f 13/25/25 9/23/23 1/16/16
f 44/57/49 46/59/50 55/73/56
f 46/74/50 43/4/4 52/6/6
f 23/9/9 25/36/33 21/75/28
f 25/76/33 22/14/14 15/26/26
f 37/50/44 39/52/45 32/45/40
f 39/52/45 36/5/5 30/43/39
f 45/60/51 48/62/52 20/77/30
f 48/78/52 44/57/49 17/7/7
f 16/11/11 18/30/29 6/20/20
f 18/30/29 15/26/26 3/13/13
f 24/37/34 27/39/35 53/79/55
f 27/80/35 23/9/9 51/8/8
f 31/10/10 34/47/41 49/81/48
f 34/82/41 30/43/39 43/4/4
f 2/12/12 4/19/19 35/83/38
f 4/84/19 1/16/16 29/40/36
f 8/1/1 14/22/22 28/34/32
f 14/22/22 10/15/15 22/14/14
f 29/40/36 1/16/16 9/23/23
o Cube.001
v 0.113926 0.720204 0.189363
v 0.101878 0.720204 0.225332
v 0.110398 0.720204 0.214797
v 0.113926 0.916442 0.189363
v 0.101878 0.935595 0.189363
v 0.101878 0.916442 0.225332
v 0.110398 0.929985 0.189363
v 0.108834 0.927500 0.210130
v 0.101878 0.929985 0.214797
v 0.110398 0.916442 0.214797
v -0.009516 0.720204 0.225332
v -0.021564 0.720204 0.189363
v -0.018036 0.720204 0.214797
v -0.009516 0.935595 0.189363
v -0.021564 0.916442 0.189363
v -0.009516 0.916442 0.225332
v -0.018036 0.929985 0.189363
v -0.016472 0.927500 0.210130
v -0.018036 0.916442 0.214797
v -0.009516 0.929985 0.214797
v 0.101878 0.720204 -0.179180
v 0.113926 0.720204 -0.143211
v 0.110398 0.720204 -0.168645
v 0.101878 0.935595 -0.143211
v 0.113926 0.916442 -0.143211
v 0.101878 0.916442 -0.179180
v 0.110398 0.929985 -0.143211
v 0.108834 0.927500 -0.163978
v 0.110398 0.916442 -0.168645
v 0.101878 0.929985 -0.168645
v -0.021564 0.720204 -0.143211
v -0.009516 0.720204 -0.179180
v -0.018036 0.720204 -0.168645
v -0.009516 0.935595 -0.143211
v -0.009516 0.916442 -0.179180
v -0.021564 0.916442 -0.143211
v -0.009516 0.929985 -0.168645
v -0.016472 0.927500 -0.163978
v -0.018036 0.916442 -0.168645
v -0.018036 0.929985 -0.143211
vt 0.097035 0.926213
vt 0.075062 0.946041
vt 0.075062 0.926213
vt 0.097035 0.902095
vt 0.075062 0.921924
vt 0.075062 0.902095
vt 0.121153 0.902095
vt 0.101325 0.921924
vt 0.101325 0.902095
vt 0.097035 0.877977
vt 0.075062 0.897806
vt 0.075062 0.877977
vt 0.097035 0.946041
vt 0.099180 0.947280
vt 0.097035 0.948186
vt 0.121153 0.921924
vt 0.123298 0.923162
vt 0.121153 0.924068
vt 0.097035 0.853860
vt 0.098274 0.851715
vt 0.099180 0.853860
vt 0.122391 0.899951
vt 0.123298 0.902095
vt 0.098274 0.875833
vt 0.099180 0.877977
vt 0.097035 0.873688
vt 0.099180 0.874927
vt 0.097035 0.875833
vt 0.099180 0.923766
vt 0.099180 0.921924
vt 0.099180 0.926213
vt 0.097035 0.921924
vt 0.097035 0.924068
vt 0.098878 0.899951
vt 0.101325 0.899951
vt 0.099180 0.902095
vt 0.097035 0.897806
vt 0.097035 0.899951
vt 0.075062 0.948186
vt 0.097035 0.851715
vt 0.075062 0.853860
vt 0.075062 0.851715
vt 0.123298 0.921924
vt 0.099180 0.873688
vt 0.075062 0.875833
vt 0.121153 0.899951
vt 0.099180 0.897806
vt 0.075062 0.899951
vt 0.075062 0.924068
vt 0.101325 0.924068
vt 0.099180 0.946041
vt 0.075062 0.873688
vn 0.9905 0.1218 -0.0629
vn 0.9976 0.0000 0.0688
vn 0.9976 0.0000 -0.0688
vn -0.3852 0.2779 -0.8800
vn 0.4308 0.0000 -0.9024
vn -0.4308 0.0000 -0.9024
vn -0.2752 0.9567 0.0950
vn 0.2752 0.9567 -0.0950
vn -0.2752 0.9567 -0.0950
vn -0.9905 0.1218 0.0629
vn -0.9976 0.0000 -0.0688
vn -0.9976 0.0000 0.0688
vn 0.9905 0.1218 0.0629
vn 0.7630 0.5636 0.3166
vn 0.8981 0.1476 0.4143
vn 0.2752 0.9567 0.0950
vn 0.8079 0.5858 0.0644
vn 0.3852 0.2779 0.8800
vn 0.2780 0.7997 0.5322
vn -0.7630 0.5636 0.3166
vn -0.2780 0.7997 0.5322
vn -0.8079 0.5858 0.0644
vn -0.3852 0.2779 0.8800
vn -0.8981 0.1476 0.4143
vn 0.7630 0.5636 -0.3166
vn 0.2780 0.7997 -0.5322
vn 0.8079 0.5858 -0.0644
vn 0.3852 0.2779 -0.8800
vn 0.8981 0.1476 -0.4143
vn -0.7630 0.5636 -0.3166
vn -0.8079 0.5858 -0.0644
vn -0.2780 0.7997 -0.5322
vn -0.9905 0.1218 -0.0629
vn -0.8981 0.1476 -0.4143
vn 0.9175 0.0000 0.3976
vn 0.4308 0.0000 0.9024
vn -0.9175 0.0000 0.3976
vn -0.9175 0.0000 -0.3976
vn 0.9175 0.0000 -0.3976
vn -0.4308 0.0000 0.9024
usemtl Material.001
s 1
f 81/85/57 57/86/58 78/87/59
f 91/88/60 77/89/61 88/90/62
f 70/91/63 80/92/64 90/93/65
f 71/94/66 87/95/67 68/96/68
f 60/97/69 64/98/70 66/99/71
f 61/100/72 64/101/70 63/102/73
f 62/103/74 64/104/70 65/105/75
f 70/91/63 74/106/76 76/107/77
f 71/94/66 74/108/76 73/109/78
f 72/110/79 74/111/76 75/112/80
f 80/92/64 84/113/81 86/114/82
f 81/85/57 84/113/81 83/115/83
f 82/116/84 84/113/81 85/117/85
f 90/93/65 94/118/86 96/119/87
f 91/88/60 94/118/86 93/120/88
f 92/121/89 94/118/86 95/122/90
f 60/97/69 59/123/91 57/86/58
f 66/124/71 58/125/92 59/126/91
f 70/91/63 65/127/75 61/100/72
f 76/128/77 62/103/74 65/105/75
f 71/94/66 69/129/93 75/112/80
f 69/129/93 72/110/79 75/112/80
f 90/93/65 73/130/78 70/91/63
f 96/131/87 71/94/66 73/109/78
f 91/88/60 89/132/94 95/122/90
f 89/132/94 92/121/89 95/122/90
f 80/92/64 93/120/88 90/93/65
f 86/114/82 91/88/60 93/120/88
f 81/85/57 79/133/95 85/117/85
f 79/133/95 82/116/84 85/117/85
f 61/100/72 83/134/83 80/92/64
f 63/135/73 81/85/57 83/115/83
f 62/103/74 67/136/96 58/125/92
f 81/85/57 60/97/69 57/86/58
f 91/88/60 82/116/84 77/89/61
f 70/91/63 61/100/72 80/92/64
f 71/94/66 92/121/89 87/95/67
f 60/97/69 63/135/73 64/98/70
f 61/100/72 65/127/75 64/101/70
f 62/103/74 66/124/71 64/104/70
f 70/91/63 73/130/78 74/106/76
f 71/94/66 75/112/80 74/108/76
f 72/110/79 76/128/77 74/111/76
f 80/92/64 83/134/83 84/113/81
f 81/85/57 85/117/85 84/113/81
f 82/116/84 86/114/82 84/113/81
f 90/93/65 93/120/88 94/118/86
f 91/88/60 95/122/90 94/118/86
f 92/121/89 96/131/87 94/118/86
f 60/97/69 66/99/71 59/123/91
f 66/124/71 62/103/74 58/125/92
f 70/91/63 76/107/77 65/127/75
f 76/128/77 72/110/79 62/103/74
f 71/94/66 68/96/68 69/129/93
f 69/129/93 67/136/96 72/110/79
f 90/93/65 96/119/87 73/130/78
f 96/131/87 92/121/89 71/94/66
f 91/88/60 88/90/62 89/132/94
f 89/132/94 87/95/67 92/121/89
f 80/92/64 86/114/82 93/120/88
f 86/114/82 82/116/84 91/88/60
f 81/85/57 78/87/59 79/133/95
f 79/133/95 77/89/61 82/116/84
f 61/100/72 63/102/73 83/134/83
f 63/135/73 60/97/69 81/85/57
f 62/103/74 72/110/79 67/136/96
o Cube.002
v 0.029195 0.315902 -0.051452
v 0.023580 0.315902 -0.015483
v 0.027551 0.315902 -0.026018
v 0.029195 0.229760 -0.051452
v 0.023580 0.221352 -0.051452
v 0.023580 0.229760 -0.015483
v 0.027551 0.223815 -0.051452
v 0.026822 0.224906 -0.030685
v 0.023580 0.223815 -0.026018
v 0.027551 0.229760 -0.026018
v -0.028341 0.315902 -0.015483
v -0.033956 0.315902 -0.051452
v -0.032311 0.315902 -0.026018
v -0.028341 0.221352 -0.051452
v -0.033956 0.229760 -0.051452
v -0.028341 0.229760 -0.015483
v -0.032311 0.223815 -0.051452
v -0.031583 0.224906 -0.030685
v -0.032311 0.229760 -0.026018
v -0.028341 0.223815 -0.026018
v 0.023580 0.315902 -0.419995
v 0.029195 0.315902 -0.384026
v 0.027550 0.315902 -0.409460
v 0.023580 0.221352 -0.384026
v 0.029195 0.229760 -0.384026
v 0.023580 0.229760 -0.419995
v 0.027550 0.223815 -0.384026
v 0.026822 0.224906 -0.404793
v 0.027550 0.229760 -0.409460
v 0.023580 0.223815 -0.409460
v -0.033956 0.315902 -0.384026
v -0.028341 0.315902 -0.419995
v -0.032312 0.315902 -0.409460
v -0.028341 0.221352 -0.384026
v -0.028341 0.229760 -0.419995
v -0.033956 0.229760 -0.384026
v -0.028341 0.223815 -0.409460
v -0.031583 0.224906 -0.404793
v -0.032312 0.229760 -0.409460
v -0.032312 0.223815 -0.384026
vt 0.097035 0.926213
vt 0.075062 0.926213
vt 0.075062 0.946041
vt 0.097035 0.902095
vt 0.075062 0.902095
vt 0.075062 0.921924
vt 0.121153 0.902095
vt 0.101325 0.902095
vt 0.101325 0.921924
vt 0.097035 0.877977
vt 0.075062 0.877977
vt 0.075062 0.897806
vt 0.097035 0.946041
vt 0.097035 0.948186
vt 0.099180 0.947280
vt 0.121153 0.921924
vt 0.121153 0.924068
vt 0.123298 0.923162
vt 0.097035 0.853860
vt 0.099180 0.853860
vt 0.098274 0.851715
vt 0.123298 0.902095
vt 0.122391 0.899951
vt 0.099180 0.877977
vt 0.098274 0.875833
vt 0.097035 0.873688
vt 0.097035 0.875833
vt 0.099180 0.874927
vt 0.099180 0.921924
vt 0.099180 0.923766
vt 0.099180 0.926213
vt 0.097035 0.921924
vt 0.097035 0.924068
vt 0.101325 0.899951
vt 0.098878 0.899951
vt 0.099180 0.902095
vt 0.097035 0.897806
vt 0.097035 0.899951
vt 0.075062 0.948186
vt 0.097035 0.851715
vt 0.075062 0.851715
vt 0.075062 0.853860
vt 0.123298 0.921924
vt 0.099180 0.873688
vt 0.075062 0.875833
vt 0.121153 0.899951
vt 0.099180 0.897806
vt 0.075062 0.899951
vt 0.075062 0.924068
vt 0.101325 0.924068
vt 0.099180 0.946041
vt 0.075062 0.873688
vn 0.9908 -0.1319 -0.0288
vn 0.9995 0.0000 -0.0323
vn 0.9995 0.0000 0.0323
vn -0.4843 -0.4183 -0.7684
vn -0.5689 0.0000 -0.8224
vn 0.5689 0.0000 -0.8224
vn -0.2688 -0.9622 0.0419
vn -0.2688 -0.9622 -0.0419
vn 0.2688 -0.9622 -0.0419
vn -0.9908 -0.1319 0.0288
vn -0.9995 0.0000 0.0323
vn -0.9995 0.0000 -0.0323
vn 0.9908 -0.1319 0.0288
vn 0.9533 -0.1887 0.2358
vn 0.7801 -0.6105 0.1368
vn 0.2688 -0.9622 0.0419
vn 0.7986 -0.6011 0.0296
vn 0.4843 -0.4183 0.7684
vn 0.3365 -0.8866 0.3173
vn -0.3365 -0.8866 0.3173
vn -0.7801 -0.6105 0.1368
vn -0.7986 -0.6011 0.0296
vn -0.4843 -0.4183 0.7684
vn -0.9533 -0.1887 0.2358
vn 0.3365 -0.8866 -0.3173
vn 0.7801 -0.6105 -0.1368
vn 0.7986 -0.6011 -0.0296
vn 0.4843 -0.4183 -0.7684
vn 0.9533 -0.1887 -0.2358
vn -0.7986 -0.6011 -0.0296
vn -0.7801 -0.6105 -0.1368
vn -0.3365 -0.8866 -0.3173
vn -0.9908 -0.1319 -0.0288
vn -0.9533 -0.1887 -0.2358
vn 0.9775 0.0000 0.2109
vn 0.5689 0.0000 0.8224
vn -0.9775 0.0000 0.2109
vn -0.9775 0.0000 -0.2109
vn 0.9775 0.0000 -0.2109
vn -0.5689 0.0000 0.8224
usemtl Material.003
s 1
f 121/137/97 118/138/98 97/139/99
f 131/140/100 128/141/101 117/142/102
f 110/143/103 130/144/104 120/145/105
f 111/146/106 108/147/107 127/148/108
f 100/149/109 106/150/110 104/151/111
f 101/152/112 103/153/113 104/154/111
f 102/155/114 105/156/115 104/157/111
f 110/143/103 116/158/116 114/159/117
f 111/146/106 113/160/118 114/161/117
f 112/162/119 115/163/120 114/164/117
f 120/145/105 126/165/121 124/166/122
f 121/137/97 123/167/123 124/166/122
f 122/168/124 125/169/125 124/166/122
f 130/144/104 136/170/126 134/171/127
f 131/140/100 133/172/128 134/171/127
f 132/173/129 135/174/130 134/171/127
f 100/149/109 97/139/99 99/175/131
f 106/176/110 99/177/131 98/178/132
f 110/143/103 101/152/112 105/179/115
f 116/180/116 105/156/115 102/155/114
f 111/146/106 115/163/120 109/181/133
f 109/181/133 115/163/120 112/162/119
f 130/144/104 110/143/103 113/182/118
f 136/183/126 113/160/118 111/146/106
f 131/140/100 135/174/130 129/184/134
f 129/184/134 135/174/130 132/173/129
f 120/145/105 130/144/104 133/172/128
f 126/165/121 133/172/128 131/140/100
f 121/137/97 125/169/125 119/185/135
f 119/185/135 125/169/125 122/168/124
f 101/152/112 120/145/105 123/186/123
f 103/187/113 123/167/123 121/137/97
f 102/155/114 98/178/132 107/188/136
f 121/137/97 97/139/99 100/149/109
f 131/140/100 117/142/102 122/168/124
f 110/143/103 120/145/105 101/152/112
f 111/146/106 127/148/108 132/173/129
f 100/149/109 104/151/111 103/187/113
f 101/152/112 104/154/111 105/179/115
f 102/155/114 104/157/111 106/176/110
f 110/143/103 114/159/117 113/182/118
f 111/146/106 114/161/117 115/163/120
f 112/162/119 114/164/117 116/180/116
f 120/145/105 124/166/122 123/186/123
f 121/137/97 124/166/122 125/169/125
f 122/168/124 124/166/122 126/165/121
f 130/144/104 134/171/127 133/172/128
f 131/140/100 134/171/127 135/174/130
f 132/173/129 134/171/127 136/183/126
f 100/149/109 99/175/131 106/150/110
f 106/176/110 98/178/132 102/155/114
f 110/143/103 105/179/115 116/158/116
f 116/180/116 102/155/114 112/162/119
f 111/146/106 109/181/133 108/147/107
f 109/181/133 112/162/119 107/188/136
f 130/144/104 113/182/118 136/170/126
f 136/183/126 111/146/106 132/173/129
f 131/140/100 129/184/134 128/141/101
f 129/184/134 132/173/129 127/148/108
f 120/145/105 133/172/128 126/165/121
f 126/165/121 131/140/100 122/168/124
f 121/137/97 119/185/135 118/138/98
f 119/185/135 122/168/124 117/142/102
f 101/152/112 123/186/123 103/153/113
f 103/187/113 121/137/97 100/149/109
f 102/155/114 107/188/136 112/162/119
o Cube.003
v -0.082414 0.433904 -0.236148
v -0.082414 0.426353 -0.219063
v -0.094593 0.426353 -0.236148
v -0.082414 0.324156 -0.219063
v -0.082414 0.316605 -0.236148
v -0.094593 0.324156 -0.236148
v -0.082414 0.433904 -0.467377
v -0.094593 0.426353 -0.467377
v -0.082414 0.426353 -0.484461
v -0.082414 0.316605 -0.467377
v -0.082414 0.324156 -0.484461
v -0.094593 0.324156 -0.467377
v 0.082414 0.433904 -0.236148
v 0.094593 0.426353 -0.236148
v 0.082414 0.426353 -0.219063
v 0.082414 0.316605 -0.236148
v 0.082414 0.324156 -0.219063
v 0.094593 0.324156 -0.236148
v 0.082414 0.433904 -0.467377
v 0.082414 0.426353 -0.484461
v 0.094593 0.426353 -0.467377
v 0.082414 0.316605 -0.467377
v 0.094593 0.324156 -0.467377
v 0.082414 0.324156 -0.484461
vt 0.879162 0.947935
vt 0.879820 0.914949
vt 0.846835 0.914292
vt 0.917022 0.948689
vt 0.917679 0.915704
vt 0.884694 0.915047
vt 0.916267 0.986549
vt 0.916925 0.953564
vt 0.883940 0.952906
vt 0.992741 0.950198
vt 0.993398 0.917213
vt 0.960413 0.916556
vt 0.954881 0.949444
vt 0.955539 0.916459
vt 0.922554 0.915801
vt 0.885449 0.877187
vt 0.885497 0.874750
vt 0.883012 0.877139
vt 0.846177 0.947277
vt 0.843740 0.947229
vt 0.846129 0.949714
vt 0.918434 0.877845
vt 0.920871 0.877893
vt 0.918482 0.875408
vt 0.954833 0.951881
vt 0.957319 0.949492
vt 0.954833 0.951881
vt 0.884791 0.910172
vt 0.882354 0.910124
vt 0.884743 0.912610
vt 0.879114 0.950372
vt 0.881600 0.947983
vt 0.879114 0.950372
vt 0.917776 0.910830
vt 0.917728 0.913267
vt 0.920214 0.910878
vt 0.916973 0.951126
vt 0.919459 0.948738
vt 0.916973 0.951126
vt 0.995178 0.950247
vt 0.995835 0.917262
vt 0.959707 0.951978
vt 0.992692 0.952635
vt 0.959756 0.949541
vt 0.921848 0.951224
vt 0.921896 0.948786
vt 0.884037 0.948032
vt 0.883282 0.985891
vn 0.0000 0.0000 1.0000
vn 1.0000 0.0000 0.0000
vn 0.0000 -1.0000 0.0000
vn -1.0000 0.0000 0.0000
vn 0.0000 0.0000 -1.0000
vn -0.4933 0.7956 0.3516
vn -0.4933 -0.7956 0.3516
vn -0.4933 0.7956 -0.3516
vn -0.4933 -0.7956 -0.3516
vn 0.4933 0.7956 0.3516
vn 0.4933 -0.7956 0.3516
vn 0.4933 0.7956 -0.3516
vn 0.4933 -0.7956 -0.3516
vn -0.5270 0.8499 0.0000
vn -0.8143 0.0000 0.5805
vn -0.5270 -0.8499 0.0000
vn -0.8143 0.0000 -0.5805
vn 0.0000 0.9146 -0.4043
vn 0.0000 -0.9146 -0.4043
vn 0.8143 0.0000 -0.5805
vn 0.5270 0.8499 0.0000
vn 0.5270 -0.8499 0.0000
vn 0.8143 0.0000 0.5805
vn 0.0000 0.9146 0.4043
vn 0.0000 -0.9146 0.4043
vn 0.0000 1.0000 0.0000
vn 0.0000 -0.9146 -0.4042
vn 0.0000 -0.9146 0.4042
usemtl Material.001
s off
f 153/189/137 151/190/137 138/191/137
f 159/192/138 157/193/138 150/194/138
f 146/195/139 158/196/139 152/197/139
f 142/198/140 139/199/140 144/200/140
f 147/201/141 145/202/141 156/203/141
f 137/204/142 139/205/142 138/206/142
f 140/207/143 142/208/143 141/209/143
f 143/210/144 145/211/144 144/212/144
f 146/213/145 148/214/145 147/215/145
f 149/216/146 151/217/146 150/218/146
f 152/219/147 154/220/147 153/221/147
f 155/222/148 157/223/148 156/224/148
f 158/225/149 160/226/149 159/227/149
f 137/204/150 143/210/150 144/212/150
f 140/228/151 138/229/151 139/199/151
f 146/230/152 141/231/152 142/198/152
f 145/202/153 147/201/153 148/232/153
f 143/210/154 155/222/154 156/224/154
f 158/233/155 146/213/155 147/201/155
f 157/193/156 159/192/156 160/234/156
f 155/222/157 149/216/157 150/194/157
f 152/197/158 158/196/158 159/192/158
f 151/190/159 153/189/159 154/235/159
f 149/216/160 137/204/160 138/206/160
f 141/209/161 152/219/161 153/189/161
f 155/222/162 143/210/162 137/204/162
f 153/189/137 138/191/137 140/207/137
f 159/192/138 150/194/138 154/235/138
f 146/195/139 152/197/139 141/236/139
f 142/198/140 144/200/140 148/232/140
f 147/201/141 156/203/141 160/234/141
f 137/204/150 144/212/150 139/205/150
f 140/228/151 139/199/151 142/198/151
f 146/230/152 142/198/152 148/232/152
f 145/202/153 148/232/153 144/200/153
f 143/210/154 156/224/154 145/211/154
f 158/233/163 147/201/163 160/234/163
f 157/193/156 160/234/156 156/203/156
f 155/222/157 150/194/157 157/193/157
f 152/197/158 159/192/158 154/235/158
f 151/190/159 154/235/159 150/194/159
f 149/216/160 138/206/160 151/217/160
f 141/209/164 153/189/164 140/207/164
f 155/222/162 137/204/162 149/216/162
