# Blender v2.83.5 OBJ File: 'hamsterhead.blend'
# www.blender.org
mtllib hamsterhead.mtl
o Cube
v 0.360824 0.736867 -0.332238
v 0.373457 0.724234 -0.332238
v 0.360824 0.724234 -0.344871
v 0.369757 0.733167 -0.332238
v 0.368118 0.731528 -0.339532
v 0.369757 0.724234 -0.341171
v 0.360824 0.733167 -0.341171
v -0.362437 0.724234 -0.332238
v -0.349804 0.736867 -0.332238
v -0.349804 0.724234 -0.344871
v -0.358737 0.733167 -0.332238
v -0.357098 0.731528 -0.339532
v -0.349804 0.733167 -0.341171
v -0.358737 0.724234 -0.341171
v 0.360824 0.013606 -0.344871
v 0.373457 0.013606 -0.332238
v 0.360824 0.000973 -0.332238
v 0.369757 0.013606 -0.341171
v 0.368118 0.006312 -0.339532
v 0.369757 0.004673 -0.332238
v 0.360824 0.004673 -0.341171
v -0.349804 0.013606 -0.344871
v -0.349804 0.000973 -0.332238
v -0.362437 0.013606 -0.332238
v -0.349804 0.004673 -0.341171
v -0.357098 0.006312 -0.339532
v -0.358737 0.004673 -0.332238
v -0.358737 0.013606 -0.341171
v 0.360824 0.736867 0.378390
v 0.360824 0.724234 0.391023
v 0.373457 0.724234 0.378390
v 0.360824 0.733167 0.387323
v 0.368118 0.731528 0.385684
v 0.369757 0.724234 0.387323
v 0.369757 0.733167 0.378390
v -0.349804 0.724234 0.391023
v -0.349804 0.736867 0.378390
v -0.362437 0.724234 0.378390
v -0.349804 0.733167 0.387323
v -0.357098 0.731528 0.385684
v -0.358737 0.733167 0.378390
v -0.358737 0.724234 0.387323
v 0.360824 0.013606 0.391023
v 0.360824 0.000973 0.378390
v 0.373457 0.013606 0.378390
v 0.360824 0.004673 0.387323
v 0.368118 0.006312 0.385684
v 0.369757 0.004673 0.378390
v 0.369757 0.013606 0.387323
v -0.362437 0.013606 0.378390
v -0.349804 0.000973 0.378390
v -0.349804 0.013606 0.391023
v -0.358737 0.004673 0.378390
v -0.357098 0.006312 0.385684
v -0.349804 0.004673 0.387323
v -0.358737 0.013606 0.387323
vt 0.669541 0.328708
vt 0.989988 0.008260
vt 0.989988 0.328708
vt 0.337699 0.992391
vt 0.658147 0.671943
vt 0.658147 0.992391
vt 0.689871 0.644695
vt 0.977850 0.356715
vt 0.977850 0.644695
vt 0.005858 0.328708
vt 0.326305 0.008260
vt 0.326305 0.328708
vt 0.337699 0.328708
vt 0.658147 0.008260
vt 0.658147 0.328708
vt 0.337699 0.340102
vt 0.332805 0.334405
vt 0.337699 0.334405
vt 0.326305 0.334405
vt 0.332002 0.328708
vt 0.663844 0.333602
vt 0.663844 0.328708
vt 0.658147 0.340102
vt 0.663844 0.340102
vt 0.658147 0.334405
vt 0.337699 0.008260
vt 0.332002 0.004971
vt 0.337699 0.002563
vt 0.329594 0.002563
vt 0.332002 0.008260
vt 0.686915 0.649815
vt 0.684751 0.644695
vt 0.661436 0.002563
vt 0.663844 0.008260
vt 0.982970 0.647651
vt 0.977850 0.649815
vt 0.669541 0.008260
vt 0.663844 0.004971
vt 0.669541 0.002563
vt 0.337699 0.660549
vt 0.334410 0.666246
vt 0.332002 0.660549
vt 0.337699 0.671943
vt 0.332002 0.668654
vt 0.337699 0.666246
vt 0.002569 0.334405
vt 0.000161 0.328708
vt 0.661436 0.666246
vt 0.663844 0.671943
vt 0.658147 0.660549
vt 0.663844 0.663838
vt 0.658147 0.666246
vt 0.995685 0.331997
vt 0.989988 0.334405
vt 0.334410 0.998088
vt 0.332002 0.992391
vt 0.689871 0.356715
vt 0.684751 0.353760
vt 0.689871 0.351596
vt 0.005858 0.008260
vt 0.000161 0.004971
vt 0.005858 0.002563
vt 0.993277 0.002563
vt 0.995685 0.008260
vt 0.980806 0.351596
vt 0.982970 0.356715
vt 0.663844 0.995680
vt 0.658147 0.998088
vt 0.995685 0.328708
vt 0.663844 0.992391
vt 0.669541 0.334405
vt 0.663844 0.660549
vt 0.977850 0.351596
vt 0.337699 0.998088
vt 0.689871 0.649815
vt 0.658147 0.002563
vt 0.326305 0.002563
vt 0.684751 0.356715
vt 0.989988 0.002563
vt 0.982970 0.644695
vt 0.000161 0.008260
vt 0.332002 0.671943
vt 0.005858 0.334405
vt 0.332002 0.340102
vn -0.9673 0.1794 -0.1794
vn -0.9673 -0.1794 0.1794
vn -0.9673 0.1794 0.1794
vn 0.1794 -0.1794 0.9673
vn -0.1794 0.1794 0.9673
vn -0.1794 -0.1794 0.9673
vn 0.1794 -0.9673 -0.1794
vn -0.1794 -0.9673 0.1794
vn -0.1794 -0.9673 -0.1794
vn 0.9673 0.1794 0.1794
vn 0.9673 -0.1794 -0.1794
vn 0.9673 0.1794 -0.1794
vn 0.1794 0.1794 -0.9673
vn -0.1794 -0.1794 -0.9673
vn -0.1794 0.1794 -0.9673
vn 0.1794 0.9673 -0.1794
vn 0.5773 0.5773 -0.5773
vn 0.1479 0.6993 -0.6993
vn 0.6993 0.6993 -0.1479
vn 0.6993 0.1479 -0.6993
vn -0.5773 0.5773 -0.5773
vn -0.6993 0.1479 -0.6993
vn -0.1794 0.9673 -0.1794
vn -0.6993 0.6993 -0.1479
vn -0.1479 0.6993 -0.6993
vn 0.1794 -0.1794 -0.9673
vn 0.5773 -0.5773 -0.5773
vn 0.1479 -0.6993 -0.6993
vn 0.6993 -0.1479 -0.6993
vn 0.6993 -0.6993 -0.1479
vn -0.5773 -0.5773 -0.5773
vn -0.6993 -0.1479 -0.6993
vn -0.1479 -0.6993 -0.6993
vn -0.9673 -0.1794 -0.1794
vn -0.6993 -0.6993 -0.1479
vn 0.1794 0.9673 0.1794
vn 0.5773 0.5773 0.5773
vn 0.6993 0.6993 0.1479
vn 0.1794 0.1794 0.9673
vn 0.1479 0.6993 0.6993
vn 0.6993 0.1479 0.6993
vn -0.5773 0.5773 0.5773
vn -0.6993 0.1479 0.6993
vn -0.1794 0.9673 0.1794
vn -0.1479 0.6993 0.6993
vn -0.6993 0.6993 0.1479
vn 0.5773 -0.5773 0.5773
vn 0.6993 -0.1479 0.6993
vn 0.1794 -0.9673 0.1794
vn 0.1479 -0.6993 0.6993
vn 0.9673 -0.1794 0.1794
vn 0.6993 -0.6993 0.1479
vn -0.5773 -0.5773 0.5773
vn -0.6993 -0.1479 0.6993
vn -0.6993 -0.6993 0.1479
vn -0.1479 -0.6993 0.6993
usemtl Material
s 1
f 8/1/1 50/2/2 38/3/3
f 43/4/4 36/5/5 52/6/6
f 17/7/7 51/8/8 23/9/9
f 31/10/10 16/11/11 2/12/12
f 3/13/13 22/14/14 10/15/15
f 1/16/16 5/17/17 7/18/18
f 2/12/12 5/17/17 4/19/19
f 3/13/13 5/17/17 6/20/20
f 8/1/1 12/21/21 14/22/22
f 9/23/23 12/21/21 11/24/24
f 10/15/15 12/21/21 13/25/25
f 15/26/26 19/27/27 21/28/28
f 16/11/11 19/29/27 18/30/29
f 17/7/7 19/31/27 20/32/30
f 22/14/14 26/33/31 28/34/32
f 23/9/9 26/35/31 25/36/33
f 24/37/34 26/38/31 27/39/35
f 29/40/36 33/41/37 35/42/38
f 30/43/39 33/44/37 32/45/40
f 31/10/10 33/46/37 34/47/41
f 36/5/5 40/48/42 42/49/43
f 37/50/44 40/51/42 39/52/45
f 38/3/3 40/53/42 41/54/46
f 43/4/4 47/55/47 49/56/48
f 44/57/49 47/58/47 46/59/50
f 45/60/51 47/61/47 48/62/52
f 50/2/2 54/63/53 56/64/54
f 51/8/8 54/65/53 53/66/55
f 52/6/6 54/67/53 55/68/56
f 50/2/2 42/69/43 38/3/3
f 56/70/54 36/5/5 42/49/43
f 38/3/3 11/71/24 8/1/1
f 41/72/46 9/23/23 11/24/24
f 10/15/15 7/18/18 3/13/13
f 13/25/25 1/16/16 7/18/18
f 44/57/49 55/73/56 51/8/8
f 46/74/50 52/6/6 55/68/56
f 23/9/9 21/75/28 17/7/7
f 25/76/33 15/26/26 21/28/28
f 37/50/44 32/45/40 29/40/36
f 39/52/45 30/43/39 32/45/40
f 45/60/51 20/77/30 16/11/11
f 48/78/52 17/7/7 20/32/30
f 16/11/11 6/20/20 2/12/12
f 18/30/29 3/13/13 6/20/20
f 24/37/34 53/79/55 50/2/2
f 27/80/35 51/8/8 53/66/55
f 31/10/10 49/81/48 45/60/51
f 34/82/41 43/4/4 49/56/48
f 2/12/12 35/83/38 31/10/10
f 4/84/19 29/40/36 35/42/38
f 8/1/1 28/34/32 24/37/34
f 14/22/22 22/14/14 28/34/32
f 29/40/36 9/23/23 37/50/44
f 8/1/1 24/37/34 50/2/2
f 43/4/4 30/43/39 36/5/5
f 17/7/7 44/57/49 51/8/8
f 31/10/10 45/60/51 16/11/11
f 3/13/13 15/26/26 22/14/14
f 1/16/16 4/84/19 5/17/17
f 2/12/12 6/20/20 5/17/17
f 3/13/13 7/18/18 5/17/17
f 8/1/1 11/71/24 12/21/21
f 9/23/23 13/25/25 12/21/21
f 10/15/15 14/22/22 12/21/21
f 15/26/26 18/30/29 19/27/27
f 16/11/11 20/77/30 19/29/27
f 17/7/7 21/75/28 19/31/27
f 22/14/14 25/76/33 26/33/31
f 23/9/9 27/80/35 26/35/31
f 24/37/34 28/34/32 26/38/31
f 29/40/36 32/45/40 33/41/37
f 30/43/39 34/82/41 33/44/37
f 31/10/10 35/83/38 33/46/37
f 36/5/5 39/52/45 40/48/42
f 37/50/44 41/72/46 40/51/42
f 38/3/3 42/69/43 40/53/42
f 43/4/4 46/74/50 47/55/47
f 44/57/49 48/78/52 47/58/47
f 45/60/51 49/81/48 47/61/47
f 50/2/2 53/79/55 54/63/53
f 51/8/8 55/73/56 54/65/53
f 52/6/6 56/70/54 54/67/53
f 50/2/2 56/64/54 42/69/43
f 56/70/54 52/6/6 36/5/5
f 38/3/3 41/54/46 11/71/24
f 41/72/46 37/50/44 9/23/23
f 10/15/15 13/25/25 7/18/18
f 13/25/25 9/23/23 1/16/16
f 44/57/49 46/59/50 55/73/56
f 46/74/50 43/4/4 52/6/6
f 23/9/9 25/36/33 21/75/28
f 25/76/33 22/14/14 15/26/26
f 37/50/44 39/52/45 32/45/40
f 39/52/45 36/5/5 30/43/39
f 45/60/51 48/62/52 20/77/30
f 48/78/52 44/57/49 17/7/7
f 16/11/11 18/30/29 6/20/20
f 18/30/29 15/26/26 3/13/13
f 24/37/34 27/39/35 53/79/55
f 27/80/35 23/9/9 51/8/8
f 31/10/10 34/47/41 49/81/48
f 34/82/41 30/43/39 43/4/4
f 2/12/12 4/19/19 35/83/38
f 4/84/19 1/16/16 29/40/36
f 8/1/1 14/22/22 28/34/32
f 14/22/22 10/15/15 22/14/14
f 29/40/36 1/16/16 9/23/23
o Cube.001
v 0.360832 0.719171 0.068769
v 0.348784 0.719171 0.078652
v 0.357303 0.719171 0.075758
v 0.360832 0.915410 0.068769
v 0.348784 0.934563 0.068769
v 0.348784 0.915410 0.078652
v 0.357303 0.928953 0.068769
v 0.355740 0.926468 0.074475
v 0.348784 0.928953 0.075758
v 0.357303 0.915410 0.075758
v 0.237390 0.719171 0.078652
v 0.225342 0.719171 0.068769
v 0.228870 0.719171 0.075758
v 0.237390 0.934563 0.068769
v 0.225342 0.915410 0.068769
v 0.237390 0.915410 0.078652
v 0.228870 0.928953 0.068769
v 0.230434 0.926468 0.074475
v 0.228870 0.915410 0.075758
v 0.237390 0.928953 0.075758
v 0.348784 0.719171 -0.032501
v 0.360832 0.719171 -0.022617
v 0.357303 0.719171 -0.029606
v 0.348784 0.934563 -0.022617
v 0.360832 0.915410 -0.022617
v 0.348784 0.915410 -0.032501
v 0.357303 0.928953 -0.022617
v 0.355740 0.926468 -0.028323
v 0.357303 0.915410 -0.029606
v 0.348784 0.928953 -0.029606
v 0.225342 0.719171 -0.022617
v 0.237389 0.719171 -0.032501
v 0.228870 0.719171 -0.029606
v 0.237389 0.934563 -0.022617
v 0.237389 0.915410 -0.032501
v 0.225342 0.915410 -0.022617
v 0.237389 0.928953 -0.029606
v 0.230434 0.926468 -0.028323
v 0.228870 0.915410 -0.029606
v 0.228870 0.928953 -0.022617
vt 0.186281 0.635938
vt 0.125722 0.690587
vt 0.125722 0.635939
vt 0.186281 0.569469
vt 0.125722 0.624117
vt 0.125722 0.569469
vt 0.252751 0.569469
vt 0.198102 0.624117
vt 0.198102 0.569469
vt 0.186281 0.502999
vt 0.125722 0.557647
vt 0.125722 0.502999
vt 0.186281 0.690587
vt 0.192192 0.694000
vt 0.186281 0.696498
vt 0.252751 0.624117
vt 0.258662 0.627530
vt 0.252751 0.630028
vt 0.186281 0.436529
vt 0.189694 0.430618
vt 0.192192 0.436529
vt 0.256164 0.563558
vt 0.258662 0.569469
vt 0.189694 0.497088
vt 0.192192 0.502999
vt 0.186281 0.491178
vt 0.192192 0.494590
vt 0.186281 0.497088
vt 0.192192 0.629195
vt 0.192192 0.624117
vt 0.192192 0.635939
vt 0.186281 0.624117
vt 0.186281 0.630028
vt 0.191359 0.563558
vt 0.198102 0.563558
vt 0.192192 0.569469
vt 0.186281 0.557647
vt 0.186281 0.563558
vt 0.125722 0.696498
vt 0.186281 0.430618
vt 0.125722 0.436529
vt 0.125722 0.430618
vt 0.258662 0.624117
vt 0.192192 0.491178
vt 0.125722 0.497088
vt 0.252751 0.563558
vt 0.192192 0.557647
vt 0.125722 0.563558
vt 0.125722 0.630028
vt 0.198102 0.630028
vt 0.192192 0.690587
vt 0.125722 0.491178
vn 0.9689 0.1140 -0.2196
vn 0.9728 0.0000 0.2316
vn 0.9728 0.0000 -0.2316
vn -0.1546 0.0960 -0.9833
vn 0.1630 0.0000 -0.9866
vn -0.1630 0.0000 -0.9866
vn -0.2538 0.9199 0.2989
vn 0.2538 0.9199 -0.2989
vn -0.2538 0.9199 -0.2989
vn -0.9689 0.1140 0.2196
vn -0.9728 0.0000 -0.2316
vn -0.9728 0.0000 0.2316
vn 0.9689 0.1140 0.2196
vn 0.6011 0.4099 0.6860
vn 0.6559 0.0873 0.7497
vn 0.2538 0.9199 0.2989
vn 0.7853 0.5814 0.2127
vn 0.1546 0.0960 0.9833
vn 0.1628 0.5325 0.8306
vn -0.6011 0.4099 0.6860
vn -0.1628 0.5325 0.8306
vn -0.7853 0.5814 0.2127
vn -0.1546 0.0960 0.9833
vn -0.6559 0.0873 0.7497
vn 0.6011 0.4099 -0.6860
vn 0.1628 0.5325 -0.8306
vn 0.7853 0.5814 -0.2127
vn 0.1546 0.0960 -0.9833
vn 0.6559 0.0873 -0.7497
vn -0.6011 0.4099 -0.6860
vn -0.7853 0.5814 -0.2127
vn -0.1628 0.5325 -0.8306
vn -0.9689 0.1140 -0.2196
vn -0.6559 0.0873 -0.7497
vn 0.6559 0.0000 0.7548
vn 0.1630 0.0000 0.9866
vn -0.6559 0.0000 0.7548
vn -0.6559 0.0000 -0.7548
vn 0.6559 0.0000 -0.7548
vn -0.1630 0.0000 0.9866
usemtl Material.001
s 1
f 81/85/57 57/86/58 78/87/59
f 91/88/60 77/89/61 88/90/62
f 70/91/63 80/92/64 90/93/65
f 71/94/66 87/95/67 68/96/68
f 60/97/69 64/98/70 66/99/71
f 61/100/72 64/101/70 63/102/73
f 62/103/74 64/104/70 65/105/75
f 70/91/63 74/106/76 76/107/77
f 71/94/66 74/108/76 73/109/78
f 72/110/79 74/111/76 75/112/80
f 80/92/64 84/113/81 86/114/82
f 81/85/57 84/113/81 83/115/83
f 82/116/84 84/113/81 85/117/85
f 90/93/65 94/118/86 96/119/87
f 91/88/60 94/118/86 93/120/88
f 92/121/89 94/118/86 95/122/90
f 60/97/69 59/123/91 57/86/58
f 66/124/71 58/125/92 59/126/91
f 70/91/63 65/127/75 61/100/72
f 76/128/77 62/103/74 65/105/75
f 71/94/66 69/129/93 75/112/80
f 69/129/93 72/110/79 75/112/80
f 90/93/65 73/130/78 70/91/63
f 96/131/87 71/94/66 73/109/78
f 91/88/60 89/132/94 95/122/90
f 89/132/94 92/121/89 95/122/90
f 80/92/64 93/120/88 90/93/65
f 86/114/82 91/88/60 93/120/88
f 81/85/57 79/133/95 85/117/85
f 79/133/95 82/116/84 85/117/85
f 61/100/72 83/134/83 80/92/64
f 63/135/73 81/85/57 83/115/83
f 62/103/74 67/136/96 58/125/92
f 81/85/57 60/97/69 57/86/58
f 91/88/60 82/116/84 77/89/61
f 70/91/63 61/100/72 80/92/64
f 71/94/66 92/121/89 87/95/67
f 60/97/69 63/135/73 64/98/70
f 61/100/72 65/127/75 64/101/70
f 62/103/74 66/124/71 64/104/70
f 70/91/63 73/130/78 74/106/76
f 71/94/66 75/112/80 74/108/76
f 72/110/79 76/128/77 74/111/76
f 80/92/64 83/134/83 84/113/81
f 81/85/57 85/117/85 84/113/81
f 82/116/84 86/114/82 84/113/81
f 90/93/65 93/120/88 94/118/86
f 91/88/60 95/122/90 94/118/86
f 92/121/89 96/131/87 94/118/86
f 60/97/69 66/99/71 59/123/91
f 66/124/71 62/103/74 58/125/92
f 70/91/63 76/107/77 65/127/75
f 76/128/77 72/110/79 62/103/74
f 71/94/66 68/96/68 69/129/93
f 69/129/93 67/136/96 72/110/79
f 90/93/65 96/119/87 73/130/78
f 96/131/87 92/121/89 71/94/66
f 91/88/60 88/90/62 89/132/94
f 89/132/94 87/95/67 92/121/89
f 80/92/64 86/114/82 93/120/88
f 86/114/82 82/116/84 91/88/60
f 81/85/57 78/87/59 79/133/95
f 79/133/95 77/89/61 82/116/84
f 61/100/72 63/102/73 83/134/83
f 63/135/73 60/97/69 81/85/57
f 62/103/74 72/110/79 67/136/96
o Cube.002_Cube.001
v -0.210007 0.719171 0.068769
v -0.222055 0.719171 0.078652
v -0.213536 0.719171 0.075758
v -0.210007 0.915410 0.068769
v -0.222055 0.934563 0.068769
v -0.222055 0.915410 0.078652
v -0.213536 0.928953 0.068769
v -0.215099 0.926468 0.074475
v -0.222055 0.928953 0.075758
v -0.213536 0.915410 0.075758
v -0.333450 0.719171 0.078652
v -0.345498 0.719171 0.068769
v -0.341969 0.719171 0.075758
v -0.333450 0.934563 0.068769
v -0.345498 0.915410 0.068769
v -0.333450 0.915410 0.078652
v -0.341969 0.928953 0.068769
v -0.340406 0.926468 0.074475
v -0.341969 0.915410 0.075758
v -0.333450 0.928953 0.075758
v -0.222055 0.719171 -0.032501
v -0.210007 0.719171 -0.022617
v -0.213536 0.719171 -0.029606
v -0.222055 0.934563 -0.022617
v -0.210007 0.915410 -0.022617
v -0.222055 0.915410 -0.032501
v -0.213536 0.928953 -0.022617
v -0.215099 0.926468 -0.028323
v -0.213536 0.915410 -0.029606
v -0.222055 0.928953 -0.029606
v -0.345498 0.719171 -0.022617
v -0.333450 0.719171 -0.032501
v -0.341969 0.719171 -0.029606
v -0.333450 0.934563 -0.022617
v -0.333450 0.915410 -0.032501
v -0.345498 0.915410 -0.022617
v -0.333450 0.928953 -0.029606
v -0.340406 0.926468 -0.028323
v -0.341969 0.915410 -0.029606
v -0.341969 0.928953 -0.022617
vt 0.186281 0.635938
vt 0.125722 0.690587
vt 0.125722 0.635939
vt 0.186281 0.569469
vt 0.125722 0.624117
vt 0.125722 0.569469
vt 0.252751 0.569469
vt 0.198102 0.624117
vt 0.198102 0.569469
vt 0.186281 0.502999
vt 0.125722 0.557647
vt 0.125722 0.502999
vt 0.186281 0.690587
vt 0.192192 0.694000
vt 0.186281 0.696498
vt 0.252751 0.624117
vt 0.258662 0.627530
vt 0.252751 0.630028
vt 0.186281 0.436529
vt 0.189694 0.430618
vt 0.192192 0.436529
vt 0.256164 0.563558
vt 0.258662 0.569469
vt 0.189694 0.497088
vt 0.192192 0.502999
vt 0.186281 0.491178
vt 0.192192 0.494590
vt 0.186281 0.497088
vt 0.192192 0.629195
vt 0.192192 0.624117
vt 0.192192 0.635939
vt 0.186281 0.624117
vt 0.186281 0.630028
vt 0.191359 0.563558
vt 0.198102 0.563558
vt 0.192192 0.569469
vt 0.186281 0.557647
vt 0.186281 0.563558
vt 0.125722 0.696498
vt 0.186281 0.430618
vt 0.125722 0.436529
vt 0.125722 0.430618
vt 0.258662 0.624117
vt 0.192192 0.491178
vt 0.125722 0.497088
vt 0.252751 0.563558
vt 0.192192 0.557647
vt 0.125722 0.563558
vt 0.125722 0.630028
vt 0.198102 0.630028
vt 0.192192 0.690587
vt 0.125722 0.491178
vn 0.9689 0.1140 -0.2196
vn 0.9728 0.0000 0.2316
vn 0.9728 0.0000 -0.2316
vn -0.1546 0.0960 -0.9833
vn 0.1630 0.0000 -0.9866
vn -0.1630 0.0000 -0.9866
vn -0.2538 0.9199 0.2989
vn 0.2538 0.9199 -0.2989
vn -0.2538 0.9199 -0.2989
vn -0.9689 0.1140 0.2196
vn -0.9728 0.0000 -0.2316
vn -0.9728 0.0000 0.2316
vn 0.9689 0.1140 0.2196
vn 0.6011 0.4099 0.6860
vn 0.6559 0.0873 0.7497
vn 0.2538 0.9199 0.2989
vn 0.7853 0.5814 0.2127
vn 0.1546 0.0960 0.9833
vn 0.1628 0.5325 0.8306
vn -0.6011 0.4099 0.6860
vn -0.1628 0.5325 0.8306
vn -0.7853 0.5814 0.2127
vn -0.1546 0.0960 0.9833
vn -0.6559 0.0873 0.7497
vn 0.6011 0.4099 -0.6860
vn 0.1628 0.5325 -0.8306
vn 0.7853 0.5814 -0.2127
vn 0.1546 0.0960 -0.9833
vn 0.6559 0.0873 -0.7497
vn -0.6011 0.4099 -0.6860
vn -0.7853 0.5814 -0.2127
vn -0.1628 0.5325 -0.8306
vn -0.9689 0.1140 -0.2196
vn -0.6559 0.0873 -0.7497
vn 0.6559 0.0000 0.7548
vn 0.1630 0.0000 0.9866
vn -0.6559 0.0000 0.7548
vn -0.6559 0.0000 -0.7548
vn 0.6559 0.0000 -0.7548
vn -0.1630 0.0000 0.9866
usemtl Material.001
s 1
f 121/137/97 97/138/98 118/139/99
f 131/140/100 117/141/101 128/142/102
f 110/143/103 120/144/104 130/145/105
f 111/146/106 127/147/107 108/148/108
f 100/149/109 104/150/110 106/151/111
f 101/152/112 104/153/110 103/154/113
f 102/155/114 104/156/110 105/157/115
f 110/143/103 114/158/116 116/159/117
f 111/146/106 114/160/116 113/161/118
f 112/162/119 114/163/116 115/164/120
f 120/144/104 124/165/121 126/166/122
f 121/137/97 124/165/121 123/167/123
f 122/168/124 124/165/121 125/169/125
f 130/145/105 134/170/126 136/171/127
f 131/140/100 134/170/126 133/172/128
f 132/173/129 134/170/126 135/174/130
f 100/149/109 99/175/131 97/138/98
f 106/176/111 98/177/132 99/178/131
f 110/143/103 105/179/115 101/152/112
f 116/180/117 102/155/114 105/157/115
f 111/146/106 109/181/133 115/164/120
f 109/181/133 112/162/119 115/164/120
f 130/145/105 113/182/118 110/143/103
f 136/183/127 111/146/106 113/161/118
f 131/140/100 129/184/134 135/174/130
f 129/184/134 132/173/129 135/174/130
f 120/144/104 133/172/128 130/145/105
f 126/166/122 131/140/100 133/172/128
f 121/137/97 119/185/135 125/169/125
f 119/185/135 122/168/124 125/169/125
f 101/152/112 123/186/123 120/144/104
f 103/187/113 121/137/97 123/167/123
f 102/155/114 107/188/136 98/177/132
f 121/137/97 100/149/109 97/138/98
f 131/140/100 122/168/124 117/141/101
f 110/143/103 101/152/112 120/144/104
f 111/146/106 132/173/129 127/147/107
f 100/149/109 103/187/113 104/150/110
f 101/152/112 105/179/115 104/153/110
f 102/155/114 106/176/111 104/156/110
f 110/143/103 113/182/118 114/158/116
f 111/146/106 115/164/120 114/160/116
f 112/162/119 116/180/117 114/163/116
f 120/144/104 123/186/123 124/165/121
f 121/137/97 125/169/125 124/165/121
f 122/168/124 126/166/122 124/165/121
f 130/145/105 133/172/128 134/170/126
f 131/140/100 135/174/130 134/170/126
f 132/173/129 136/183/127 134/170/126
f 100/149/109 106/151/111 99/175/131
f 106/176/111 102/155/114 98/177/132
f 110/143/103 116/159/117 105/179/115
f 116/180/117 112/162/119 102/155/114
f 111/146/106 108/148/108 109/181/133
f 109/181/133 107/188/136 112/162/119
f 130/145/105 136/171/127 113/182/118
f 136/183/127 132/173/129 111/146/106
f 131/140/100 128/142/102 129/184/134
f 129/184/134 127/147/107 132/173/129
f 120/144/104 126/166/122 133/172/128
f 126/166/122 122/168/124 131/140/100
f 121/137/97 118/139/99 119/185/135
f 119/185/135 117/141/101 122/168/124
f 101/152/112 103/154/113 123/186/123
f 103/187/113 100/149/109 121/137/97
f 102/155/114 112/162/119 107/188/136
