# Blender v2.83.5 OBJ File: 'hat.blend'
# www.blender.org
mtllib hat.mtl
o Cylinder
v -0.000000 0.008948 -0.751139
v -0.068956 0.713814 -0.466583
v 0.146540 0.008948 -0.736706
v 0.287448 0.008948 -0.693962
v 0.193833 0.713619 -0.420774
v 0.417311 0.008948 -0.624549
v 0.531135 0.008948 -0.531135
v 0.624549 0.008948 -0.417310
v 0.374095 0.713727 -0.279056
v 0.693962 0.008948 -0.287448
v 0.736706 0.008948 -0.146540
v 0.751139 0.008948 0.000000
v 0.736706 0.008948 0.146540
v 0.469767 0.713809 0.010076
v 0.693962 0.008948 0.287448
v 0.624549 0.008948 0.417311
v 0.384190 0.713618 0.258885
v 0.531135 0.008948 0.531136
v 0.417310 0.008948 0.624550
v 0.287448 0.008948 0.693962
v 0.221442 0.713693 0.410892
v 0.146540 0.008948 0.736706
v -0.000000 0.008948 0.751139
v -0.001810 0.713630 0.463252
v -0.146540 0.008948 0.736706
v -0.287449 0.008948 0.693962
v -0.417311 0.008948 0.624549
v -0.531136 0.008948 0.531135
v -0.259406 0.713795 0.393943
v -0.624550 0.008948 0.417310
v -0.693962 0.008948 0.287448
v -0.432483 0.713625 0.168368
v -0.736706 0.008948 0.146539
v -0.751139 0.008948 -0.000001
v -0.736706 0.008948 -0.146541
v -0.693962 0.008948 -0.287449
v -0.457483 0.713795 -0.114854
v -0.624549 0.008948 -0.417311
v -0.531135 0.008948 -0.531136
v -0.314550 0.713636 -0.340083
v -0.417310 0.008948 -0.624550
v -0.287448 0.008948 -0.693962
v -0.146539 0.008948 -0.736706
v 0.198634 0.688250 -0.461422
v 0.325412 0.688284 -0.379615
v 0.422646 0.687686 -0.271557
v 0.494439 0.688776 -0.088869
v 0.490383 0.688299 0.109124
v 0.385942 0.687342 0.327717
v 0.226189 0.688284 0.445913
v 0.089147 0.687686 0.494394
v -0.152333 0.688313 0.482838
v -0.361738 0.688776 0.348587
v -0.467503 0.687686 0.183885
v -0.502313 0.688250 -0.006936
v -0.443842 0.688313 -0.243604
v -0.273303 0.688250 -0.421511
v -0.044036 0.688313 -0.504380
v 0.196589 0.037199 -0.466623
v 0.389702 0.037090 -0.317039
v 0.481326 0.037206 -0.143899
v 0.499744 0.037277 0.051360
v 0.441984 0.037191 0.238812
v 0.316951 0.037191 0.389774
v 0.095936 0.037028 0.497173
v -0.097545 0.037194 0.490393
v -0.283845 0.037199 0.419305
v -0.444118 0.037191 0.234819
v -0.506335 0.037199 -0.003056
v -0.441984 0.037191 -0.238812
v -0.316950 0.037191 -0.389774
v -0.095784 0.037199 -0.497202
vt 1.000000 1.000000
vt 0.954348 0.750000
vt 1.000000 0.750000
vt 0.950317 1.000000
vt 0.906250 0.750000
vt 0.871093 1.000000
vt 0.859934 0.750000
vt 0.797345 0.750000
vt 0.765606 1.000000
vt 0.734188 0.750000
vt 0.674682 1.000000
vt 0.656903 0.750000
vt 0.597656 1.000000
vt 0.593750 0.750000
vt 0.547435 0.750000
vt 0.518432 1.000000
vt 0.470319 0.750000
vt 0.426466 1.000000
vt 0.391095 0.750000
vt 0.328125 1.000000
vt 0.328685 0.750000
vt 0.266848 0.750000
vt 0.229833 1.000000
vt 0.189264 0.750000
vt 0.137818 1.000000
vt 0.110598 0.750000
vt 0.042333 1.000000
vt 0.032818 0.750000
vt 0.145610 0.040179
vt 0.462634 0.141137
vt 0.323378 0.477333
vt 0.030378 0.625000
vt 0.108653 0.625000
vt 0.171153 0.625000
vt 0.249128 0.625000
vt 0.327403 0.625000
vt 0.405378 0.625000
vt 0.468750 0.625000
vt 0.530230 0.625000
vt 0.608653 0.625000
vt 0.671153 0.625000
vt 0.733696 0.625000
vt 0.796231 0.625000
vt 0.858689 0.625000
vt 0.936628 0.625000
vt 1.000000 0.625000
vt 0.968750 0.500000
vt 1.000000 0.500000
vt 0.937500 0.500000
vt 0.906250 0.500000
vt 0.875000 0.500000
vt 0.843750 0.500000
vt 0.812500 0.500000
vt 0.781250 0.500000
vt 0.750000 0.500000
vt 0.718750 0.500000
vt 0.687500 0.500000
vt 0.656250 0.500000
vt 0.625000 0.500000
vt 0.593750 0.500000
vt 0.562500 0.500000
vt 0.531250 0.500000
vt 0.500000 0.500000
vt 0.468750 0.500000
vt 0.437500 0.500000
vt 0.406250 0.500000
vt 0.375000 0.500000
vt 0.343750 0.500000
vt 0.312500 0.500000
vt 0.281250 0.500000
vt 0.250000 0.500000
vt 0.218750 0.500000
vt 0.187500 0.500000
vt 0.156250 0.500000
vt 0.125000 0.500000
vt 0.093750 0.500000
vt 0.062500 0.500000
vt 0.031250 0.500000
vt 0.000000 0.500000
vt 0.483562 0.272954
vt 0.421535 0.413257
vt 0.188455 0.476079
vt 0.068052 0.404789
vt 0.017579 0.279657
vt 0.277617 0.012720
vt 0.386389 0.056415
vt 0.039358 0.137410
vn -0.0776 0.9265 -0.3681
vn 0.3183 0.4601 -0.8289
vn -0.0515 0.4432 -0.8949
vn 0.1271 0.9490 -0.2885
vn 0.5604 0.4876 -0.6694
vn 0.2757 0.9382 -0.2091
vn 0.7665 0.4541 -0.4541
vn 0.8503 0.4966 -0.1742
vn 0.4073 0.9133 0.0082
vn 0.8492 0.4818 0.2159
vn 0.2983 0.9394 0.1690
vn 0.6723 0.4718 0.5705
vn 0.1740 0.9365 0.3045
vn 0.4149 0.4328 0.8003
vn 0.1392 0.4776 0.8675
vn -0.0100 0.9273 0.3741
vn -0.2533 0.4888 0.8348
vn -0.2556 0.8835 0.3925
vn -0.6327 0.4915 0.5984
vn -0.3038 0.9455 0.1171
vn -0.8318 0.4481 0.3275
vn -0.8736 0.4865 -0.0074
vn -0.4507 0.8859 -0.1097
vn -0.7623 0.4850 -0.4286
vn -0.2620 0.9276 -0.2662
vn -0.4675 0.4840 -0.7397
vn -0.1201 0.7276 -0.6754
vn -0.4346 0.7130 -0.5501
vn -0.6219 0.7135 -0.3227
vn -0.6885 0.7252 -0.0060
vn -0.6185 0.7149 0.3260
vn -0.3984 0.7186 0.5700
vn -0.1354 0.7025 0.6987
vn 0.1382 0.7225 0.6774
vn 0.4344 0.7103 0.5539
vn 0.6229 0.7070 0.3348
vn 0.7027 0.7078 0.0721
vn 0.6766 0.7079 -0.2025
vn 0.5383 0.7114 -0.4517
vn 0.2568 0.7273 -0.6364
vn 0.0192 0.9940 -0.1077
vn 0.0022 0.9940 -0.1097
vn 0.0438 0.9934 -0.1059
vn 0.0628 0.9940 -0.0900
vn 0.0765 0.9939 -0.0792
vn 0.0931 0.9938 -0.0609
vn 0.1025 0.9937 -0.0438
vn 0.1097 0.9937 -0.0206
vn 0.1117 0.9937 -0.0013
vn 0.1095 0.9937 0.0230
vn 0.1035 0.9937 0.0417
vn 0.0921 0.9937 0.0630
vn 0.0797 0.9937 0.0780
vn 0.0610 0.9937 0.0934
vn 0.0433 0.9939 0.1017
vn 0.0223 0.9935 0.1117
vn -0.0006 0.9937 0.1119
vn -0.0218 0.9937 0.1096
vn -0.0422 0.9937 0.1038
vn -0.0636 0.9934 0.0953
vn -0.0792 0.9940 0.0760
vn -0.0906 0.9939 0.0630
vn -0.1035 0.9937 0.0416
vn -0.1085 0.9938 0.0229
vn -0.1146 0.9934 0.0001
vn -0.1072 0.9940 -0.0236
vn -0.1027 0.9939 -0.0404
vn -0.0921 0.9937 -0.0630
vn -0.0797 0.9937 -0.0780
vn -0.0610 0.9937 -0.0934
vn -0.0436 0.9938 -0.1019
vn -0.0224 0.9934 -0.1124
usemtl None
s 1
f 2/1/1 44/2/2 58/3/3
f 5/4/4 45/5/5 44/2/2
f 45/5/5 9/6/6 46/7/7
f 9/6/6 47/8/8 46/7/7
f 47/8/8 14/9/9 48/10/10
f 48/10/10 17/11/11 49/12/12
f 21/13/13 50/14/14 49/12/12
f 50/14/14 21/13/13 51/15/15
f 24/16/16 52/17/17 51/15/15
f 29/18/18 53/19/19 52/17/17
f 53/19/19 32/20/20 54/21/21
f 32/20/20 55/22/22 54/21/21
f 37/23/23 56/24/24 55/22/22
f 40/25/25 57/26/26 56/24/24
f 2/27/1 58/28/3 57/26/26
f 29/29/18 17/30/11 5/31/4
f 2/1/1 5/4/4 44/2/2
f 57/26/26 72/32/27 71/33/28
f 56/24/24 71/33/28 70/34/29
f 56/24/24 70/34/29 69/35/30
f 54/21/21 69/35/30 68/36/31
f 53/19/19 68/36/31 67/37/32
f 52/17/17 67/37/32 66/38/33
f 52/17/17 66/38/33 65/39/34
f 50/14/14 65/39/34 64/40/35
f 49/12/12 64/40/35 63/41/36
f 48/10/10 63/41/36 62/42/37
f 47/8/8 62/42/37 61/43/38
f 46/7/7 61/43/38 60/44/39
f 45/5/5 60/44/39 59/45/40
f 58/3/3 59/45/40 72/46/27
f 72/46/27 3/47/41 1/48/42
f 59/45/40 4/49/43 3/47/41
f 4/49/43 59/45/40 6/50/44
f 59/45/40 7/51/45 6/50/44
f 60/44/39 8/52/46 7/51/45
f 8/52/46 61/43/38 10/53/47
f 10/53/47 61/43/38 11/54/48
f 11/54/48 62/42/37 12/55/49
f 12/55/49 62/42/37 13/56/50
f 62/42/37 15/57/51 13/56/50
f 15/57/51 63/41/36 16/58/52
f 63/41/36 18/59/53 16/58/52
f 18/59/53 64/40/35 19/60/54
f 64/40/35 20/61/55 19/60/54
f 65/39/34 22/62/56 20/61/55
f 65/39/34 23/63/57 22/62/56
f 23/63/57 66/38/33 25/64/58
f 66/38/33 26/65/59 25/64/58
f 67/37/32 27/66/60 26/65/59
f 27/66/60 67/37/32 28/67/61
f 67/37/32 30/68/62 28/67/61
f 68/36/31 31/69/63 30/68/62
f 68/36/31 33/70/64 31/69/63
f 33/70/64 69/35/30 34/71/65
f 34/71/65 69/35/30 35/72/66
f 69/35/30 36/73/67 35/72/66
f 70/34/29 38/74/68 36/73/67
f 70/34/29 39/75/69 38/74/68
f 71/33/28 41/76/70 39/75/69
f 71/33/28 42/77/71 41/76/70
f 72/32/27 43/78/72 42/77/71
f 43/78/72 72/32/27 1/79/42
f 5/4/4 9/6/6 45/5/5
f 9/6/6 14/9/9 47/8/8
f 48/10/10 14/9/9 17/11/11
f 49/12/12 17/11/11 21/13/13
f 51/15/15 21/13/13 24/16/16
f 52/17/17 24/16/16 29/18/18
f 53/19/19 29/18/18 32/20/20
f 32/20/20 37/23/23 55/22/22
f 37/23/23 40/25/25 56/24/24
f 40/25/25 2/27/1 57/26/26
f 14/80/9 9/81/6 5/31/4
f 2/82/1 40/83/25 37/84/23
f 29/29/18 24/85/16 17/30/11
f 24/85/16 21/86/13 17/30/11
f 5/31/4 2/82/1 37/84/23
f 37/84/23 32/87/20 29/29/18
f 17/30/11 14/80/9 5/31/4
f 5/31/4 37/84/23 29/29/18
f 57/26/26 58/28/3 72/32/27
f 56/24/24 57/26/26 71/33/28
f 55/22/22 56/24/24 69/35/30
f 54/21/21 55/22/22 69/35/30
f 53/19/19 54/21/21 68/36/31
f 52/17/17 53/19/19 67/37/32
f 51/15/15 52/17/17 65/39/34
f 50/14/14 51/15/15 65/39/34
f 49/12/12 50/14/14 64/40/35
f 48/10/10 49/12/12 63/41/36
f 47/8/8 48/10/10 62/42/37
f 46/7/7 47/8/8 61/43/38
f 45/5/5 46/7/7 60/44/39
f 44/2/2 45/5/5 59/45/40
f 58/3/3 44/2/2 59/45/40
f 72/46/27 59/45/40 3/47/41
f 59/45/40 60/44/39 7/51/45
f 8/52/46 60/44/39 61/43/38
f 11/54/48 61/43/38 62/42/37
f 62/42/37 63/41/36 15/57/51
f 63/41/36 64/40/35 18/59/53
f 64/40/35 65/39/34 20/61/55
f 23/63/57 65/39/34 66/38/33
f 66/38/33 67/37/32 26/65/59
f 67/37/32 68/36/31 30/68/62
f 68/36/31 69/35/30 33/70/64
f 69/35/30 70/34/29 36/73/67
f 70/34/29 71/33/28 39/75/69
f 71/33/28 72/32/27 42/77/71
