# Blender v2.82 (sub 7) OBJ File: 'laserbeam.blend'
# www.blender.org
mtllib laserbeam.mtl
o Cylinder
v 0.000000 -0.000000 -0.500000
v 0.097545 1.000000 -0.490393
v 0.191342 -0.000000 -0.461940
v 0.277785 1.000000 -0.415735
v 0.353553 -0.000000 -0.353553
v 0.415735 1.000000 -0.277785
v 0.461940 -0.000000 -0.191342
v 0.490393 1.000000 -0.097545
v 0.500000 -0.000000 0.000000
v 0.490393 1.000000 0.097545
v 0.461940 -0.000000 0.191342
v 0.415735 1.000000 0.277785
v 0.353553 -0.000000 0.353553
v 0.277785 1.000000 0.415735
v 0.191342 -0.000000 0.461940
v 0.097545 1.000000 0.490393
v 0.000000 -0.000000 0.500000
v -0.097545 1.000000 0.490393
v -0.191342 -0.000000 0.461940
v -0.277785 1.000000 0.415735
v -0.353553 -0.000000 0.353554
v -0.415735 1.000000 0.277785
v -0.461940 -0.000000 0.191342
v -0.490393 1.000000 0.097545
v -0.500000 -0.000000 -0.000000
v -0.490393 1.000000 -0.097545
v -0.461940 -0.000000 -0.191342
v -0.415735 1.000000 -0.277785
v -0.353553 -0.000000 -0.353554
v -0.277785 1.000000 -0.415735
v -0.191341 -0.000000 -0.461940
v -0.097545 1.000000 -0.490393
vt 1.000000 1.000000
vt 0.937500 0.000000
vt 1.000000 0.000000
vt 0.937500 1.000000
vt 0.875000 0.000000
vt 0.875000 1.000000
vt 0.812500 0.000000
vt 0.812500 1.000000
vt 0.750000 0.000000
vt 0.750000 1.000000
vt 0.687500 0.000000
vt 0.687500 1.000000
vt 0.625000 0.000000
vt 0.625000 1.000000
vt 0.562500 0.000000
vt 0.562500 1.000000
vt 0.500000 0.000000
vt 0.500000 1.000000
vt 0.437500 0.000000
vt 0.437500 1.000000
vt 0.375000 0.000000
vt 0.375000 1.000000
vt 0.312500 0.000000
vt 0.312500 1.000000
vt 0.250000 0.000000
vt 0.250000 1.000000
vt 0.187500 0.000000
vt 0.187500 1.000000
vt 0.125000 0.000000
vt 0.125000 1.000000
vt 0.062500 0.000000
vt 0.062500 1.000000
vt 0.000000 0.000000
vt 0.000000 1.000000
vn 0.1951 -0.0096 -0.9807
vn 0.5555 -0.0096 -0.8314
vn 0.8314 -0.0096 -0.5555
vn 0.9807 -0.0096 -0.1951
vn 0.9807 -0.0096 0.1951
vn 0.8314 -0.0096 0.5555
vn 0.5555 -0.0096 0.8314
vn 0.1951 -0.0096 0.9807
vn -0.1951 -0.0096 0.9807
vn -0.5555 -0.0096 0.8314
vn -0.8314 -0.0096 0.5555
vn -0.9807 -0.0096 0.1951
vn -0.9807 -0.0096 -0.1951
vn -0.8314 -0.0096 -0.5555
vn -0.5555 -0.0096 -0.8314
vn -0.1951 -0.0096 -0.9807
vn 0.3827 0.0096 -0.9238
vn 0.7071 0.0096 -0.7071
vn 0.9238 0.0096 -0.3827
vn 1.0000 0.0096 0.0000
vn 0.9238 0.0096 0.3827
vn 0.7071 0.0096 0.7071
vn 0.3827 0.0096 0.9238
vn 0.0000 0.0096 1.0000
vn -0.3827 0.0096 0.9238
vn -0.7071 0.0096 0.7071
vn -0.9238 0.0096 0.3827
vn -1.0000 0.0096 -0.0000
vn -0.9238 0.0096 -0.3827
vn -0.7071 0.0096 -0.7071
vn -0.3827 0.0096 -0.9238
vn 0.0000 0.0096 -1.0000
usemtl None
s off
f 2/1/1 3/2/1 1/3/1
f 4/4/2 5/5/2 3/2/2
f 6/6/3 7/7/3 5/5/3
f 8/8/4 9/9/4 7/7/4
f 10/10/5 11/11/5 9/9/5
f 12/12/6 13/13/6 11/11/6
f 14/14/7 15/15/7 13/13/7
f 16/16/8 17/17/8 15/15/8
f 18/18/9 19/19/9 17/17/9
f 20/20/10 21/21/10 19/19/10
f 22/22/11 23/23/11 21/21/11
f 24/24/12 25/25/12 23/23/12
f 26/26/13 27/27/13 25/25/13
f 28/28/14 29/29/14 27/27/14
f 30/30/15 31/31/15 29/29/15
f 32/32/16 1/33/16 31/31/16
f 2/1/17 4/4/17 3/2/17
f 4/4/18 6/6/18 5/5/18
f 6/6/19 8/8/19 7/7/19
f 8/8/20 10/10/20 9/9/20
f 10/10/21 12/12/21 11/11/21
f 12/12/22 14/14/22 13/13/22
f 14/14/23 16/16/23 15/15/23
f 16/16/24 18/18/24 17/17/24
f 18/18/25 20/20/25 19/19/25
f 20/20/26 22/22/26 21/21/26
f 22/22/27 24/24/27 23/23/27
f 24/24/28 26/26/28 25/25/28
f 26/26/29 28/28/29 27/27/29
f 28/28/30 30/30/30 29/29/30
f 30/30/31 32/32/31 31/31/31
f 32/32/32 2/34/32 1/33/32
