# Blender v2.83.5 OBJ File: 'party_hat.blend'
# www.blender.org
mtllib party_hat.mtl
o Cone
v 0.000000 -0.004538 -0.407005
v 0.105341 -0.004538 -0.393137
v 0.203503 -0.004538 -0.352477
v 0.287796 -0.004538 -0.287796
v 0.352477 -0.004538 -0.203503
v 0.393137 -0.004538 -0.105341
v 0.407005 -0.004538 -0.000000
v 0.393137 -0.004538 0.105341
v 0.352477 -0.004538 0.203503
v 0.287796 -0.004538 0.287796
v 0.203503 -0.004538 0.352477
v 0.105341 -0.004538 0.393137
v 0.000000 -0.004538 0.407005
v -0.105341 -0.004538 0.393137
v -0.203503 -0.004538 0.352477
v -0.287796 -0.004538 0.287796
v -0.352477 -0.004538 0.203503
v 0.000000 1.065744 0.000000
v -0.393137 -0.004538 0.105341
v -0.407005 -0.004538 0.000000
v -0.393137 -0.004538 -0.105341
v -0.352477 -0.004538 -0.203502
v -0.287796 -0.004538 -0.287796
v -0.203503 -0.004538 -0.352477
v -0.105341 -0.004538 -0.393137
vt 1.158620 0.728156
vt 0.980469 0.480469
vt 1.249252 0.650163
vt 1.321567 0.560605
vt 1.370637 0.465585
vt 1.393118 0.371580
vt 1.387477 0.284996
vt 1.354099 0.211733
vt 1.295259 0.156783
vt 1.214967 0.123893
vt 1.118694 0.115302
vt 1.013001 0.131597
vt 0.905091 0.171667
vt 0.802318 0.232781
vt 0.711686 0.310775
vt 0.639371 0.400333
vt 0.590301 0.495352
vt 0.567820 0.589357
vt 0.573461 0.675942
vt 0.606839 0.749205
vt 0.665679 0.804154
vt 0.745971 0.837045
vt 0.842244 0.845635
vt 0.947937 0.829341
vt 1.055846 0.789271
vn 0.0000 0.3554 -0.9347
vn 0.0000 1.0000 0.0000
vn 0.2419 0.3554 -0.9028
vn 0.4673 0.3554 -0.8094
vn 0.6609 0.3554 -0.6609
vn 0.8094 0.3554 -0.4673
vn 0.9028 0.3554 -0.2419
vn 0.9347 0.3554 0.0000
vn 0.9028 0.3554 0.2419
vn 0.8094 0.3554 0.4673
vn 0.6609 0.3554 0.6609
vn 0.4673 0.3554 0.8094
vn 0.2419 0.3554 0.9028
vn 0.0000 0.3554 0.9347
vn -0.2419 0.3554 0.9028
vn -0.4673 0.3554 0.8094
vn -0.6609 0.3554 0.6609
vn -0.8094 0.3554 0.4673
vn -0.9028 0.3554 0.2419
vn -0.9347 0.3554 0.0000
vn -0.9028 0.3554 -0.2419
vn -0.8094 0.3554 -0.4673
vn -0.6609 0.3554 -0.6609
vn -0.4673 0.3554 -0.8094
vn -0.2419 0.3554 -0.9028
usemtl Material
s 1
f 1/1/1 18/2/2 2/3/3
f 2/3/3 18/2/2 3/4/4
f 3/4/4 18/2/2 4/5/5
f 4/5/5 18/2/2 5/6/6
f 5/6/6 18/2/2 6/7/7
f 6/7/7 18/2/2 7/8/8
f 7/8/8 18/2/2 8/9/9
f 8/9/9 18/2/2 9/10/10
f 9/10/10 18/2/2 10/11/11
f 10/11/11 18/2/2 11/12/12
f 11/12/12 18/2/2 12/13/13
f 12/13/13 18/2/2 13/14/14
f 13/14/14 18/2/2 14/15/15
f 14/15/15 18/2/2 15/16/16
f 15/16/16 18/2/2 16/17/17
f 16/17/17 18/2/2 17/18/18
f 17/18/18 18/2/2 19/19/19
f 19/19/19 18/2/2 20/20/20
f 20/20/20 18/2/2 21/21/21
f 21/21/21 18/2/2 22/22/22
f 22/22/22 18/2/2 23/23/23
f 23/23/23 18/2/2 24/24/24
f 24/24/24 18/2/2 25/25/25
f 25/25/25 18/2/2 1/1/1
